<mxfile host="Electron" agent="Mozilla/5.0 (Macintosh; Intel Mac OS X 10_15_7) AppleWebKit/537.36 (KHTML, like Gecko) draw.io/24.7.8 Chrome/128.0.6613.36 Electron/32.0.1 Safari/537.36" version="24.7.8">
  <diagram name="Page-1" id="dGO7pggi1dXLRebVZm4o">
    <mxGraphModel dx="710" dy="499" grid="1" gridSize="10" guides="1" tooltips="1" connect="1" arrows="1" fold="1" page="1" pageScale="1" pageWidth="850" pageHeight="1100" math="0" shadow="0">
      <root>
        <mxCell id="0" />
        <mxCell id="1" parent="0" />
        <mxCell id="wL283nahEsRfDJyT6Ts5-379" style="edgeStyle=orthogonalEdgeStyle;rounded=0;sketch=1;hachureGap=4;jiggle=2;curveFitting=1;orthogonalLoop=1;jettySize=auto;html=1;entryX=0;entryY=0.5;entryDx=0;entryDy=0;fontFamily=Architects Daughter;fontSource=https%3A%2F%2Ffonts.googleapis.com%2Fcss%3Ffamily%3DArchitects%2BDaughter;" edge="1" parent="1" source="wL283nahEsRfDJyT6Ts5-371" target="wL283nahEsRfDJyT6Ts5-372">
          <mxGeometry relative="1" as="geometry">
            <Array as="points">
              <mxPoint x="30" y="65" />
            </Array>
          </mxGeometry>
        </mxCell>
        <mxCell id="wL283nahEsRfDJyT6Ts5-380" style="edgeStyle=orthogonalEdgeStyle;rounded=0;sketch=1;hachureGap=4;jiggle=2;curveFitting=1;orthogonalLoop=1;jettySize=auto;html=1;entryX=0;entryY=0.5;entryDx=0;entryDy=0;fontFamily=Architects Daughter;fontSource=https%3A%2F%2Ffonts.googleapis.com%2Fcss%3Ffamily%3DArchitects%2BDaughter;" edge="1" parent="1" source="wL283nahEsRfDJyT6Ts5-371" target="wL283nahEsRfDJyT6Ts5-373">
          <mxGeometry relative="1" as="geometry">
            <Array as="points">
              <mxPoint x="30" y="105" />
            </Array>
          </mxGeometry>
        </mxCell>
        <mxCell id="wL283nahEsRfDJyT6Ts5-381" style="edgeStyle=orthogonalEdgeStyle;rounded=0;sketch=1;hachureGap=4;jiggle=2;curveFitting=1;orthogonalLoop=1;jettySize=auto;html=1;entryX=0;entryY=0.5;entryDx=0;entryDy=0;fontFamily=Architects Daughter;fontSource=https%3A%2F%2Ffonts.googleapis.com%2Fcss%3Ffamily%3DArchitects%2BDaughter;" edge="1" parent="1" source="wL283nahEsRfDJyT6Ts5-371" target="wL283nahEsRfDJyT6Ts5-374">
          <mxGeometry relative="1" as="geometry">
            <Array as="points">
              <mxPoint x="30" y="145" />
            </Array>
          </mxGeometry>
        </mxCell>
        <mxCell id="wL283nahEsRfDJyT6Ts5-371" value="Agenda" style="rounded=0;whiteSpace=wrap;html=1;sketch=1;curveFitting=1;jiggle=2;fillColor=#fad9d5;strokeColor=#ae4132;" vertex="1" parent="1">
          <mxGeometry x="10" y="10" width="90" height="30" as="geometry" />
        </mxCell>
        <mxCell id="wL283nahEsRfDJyT6Ts5-372" value="branching" style="rounded=0;whiteSpace=wrap;html=1;sketch=1;curveFitting=1;jiggle=2;fillColor=#fad9d5;strokeColor=#ae4132;" vertex="1" parent="1">
          <mxGeometry x="50" y="50" width="90" height="30" as="geometry" />
        </mxCell>
        <mxCell id="wL283nahEsRfDJyT6Ts5-373" value="merging" style="rounded=0;whiteSpace=wrap;html=1;sketch=1;curveFitting=1;jiggle=2;fillColor=#fad9d5;strokeColor=#ae4132;" vertex="1" parent="1">
          <mxGeometry x="50" y="90" width="90" height="30" as="geometry" />
        </mxCell>
        <mxCell id="wL283nahEsRfDJyT6Ts5-382" style="edgeStyle=orthogonalEdgeStyle;rounded=0;sketch=1;hachureGap=4;jiggle=2;curveFitting=1;orthogonalLoop=1;jettySize=auto;html=1;entryX=0;entryY=0.5;entryDx=0;entryDy=0;fontFamily=Architects Daughter;fontSource=https%3A%2F%2Ffonts.googleapis.com%2Fcss%3Ffamily%3DArchitects%2BDaughter;" edge="1" parent="1" source="wL283nahEsRfDJyT6Ts5-374" target="wL283nahEsRfDJyT6Ts5-375">
          <mxGeometry relative="1" as="geometry">
            <Array as="points">
              <mxPoint x="60" y="185" />
            </Array>
          </mxGeometry>
        </mxCell>
        <mxCell id="wL283nahEsRfDJyT6Ts5-383" style="edgeStyle=orthogonalEdgeStyle;rounded=0;sketch=1;hachureGap=4;jiggle=2;curveFitting=1;orthogonalLoop=1;jettySize=auto;html=1;entryX=0;entryY=0.5;entryDx=0;entryDy=0;fontFamily=Architects Daughter;fontSource=https%3A%2F%2Ffonts.googleapis.com%2Fcss%3Ffamily%3DArchitects%2BDaughter;" edge="1" parent="1" source="wL283nahEsRfDJyT6Ts5-374" target="wL283nahEsRfDJyT6Ts5-376">
          <mxGeometry relative="1" as="geometry">
            <Array as="points">
              <mxPoint x="60" y="225" />
            </Array>
          </mxGeometry>
        </mxCell>
        <mxCell id="wL283nahEsRfDJyT6Ts5-384" style="edgeStyle=orthogonalEdgeStyle;rounded=0;sketch=1;hachureGap=4;jiggle=2;curveFitting=1;orthogonalLoop=1;jettySize=auto;html=1;entryX=0;entryY=0.5;entryDx=0;entryDy=0;fontFamily=Architects Daughter;fontSource=https%3A%2F%2Ffonts.googleapis.com%2Fcss%3Ffamily%3DArchitects%2BDaughter;" edge="1" parent="1" source="wL283nahEsRfDJyT6Ts5-374" target="wL283nahEsRfDJyT6Ts5-377">
          <mxGeometry relative="1" as="geometry">
            <Array as="points">
              <mxPoint x="60" y="265" />
            </Array>
          </mxGeometry>
        </mxCell>
        <mxCell id="wL283nahEsRfDJyT6Ts5-385" style="edgeStyle=orthogonalEdgeStyle;rounded=0;sketch=1;hachureGap=4;jiggle=2;curveFitting=1;orthogonalLoop=1;jettySize=auto;html=1;entryX=0;entryY=0.5;entryDx=0;entryDy=0;fontFamily=Architects Daughter;fontSource=https%3A%2F%2Ffonts.googleapis.com%2Fcss%3Ffamily%3DArchitects%2BDaughter;" edge="1" parent="1" source="wL283nahEsRfDJyT6Ts5-374" target="wL283nahEsRfDJyT6Ts5-378">
          <mxGeometry relative="1" as="geometry">
            <Array as="points">
              <mxPoint x="60" y="305" />
            </Array>
          </mxGeometry>
        </mxCell>
        <mxCell id="wL283nahEsRfDJyT6Ts5-374" value="remote" style="rounded=0;whiteSpace=wrap;html=1;sketch=1;curveFitting=1;jiggle=2;fillColor=#fad9d5;strokeColor=#ae4132;" vertex="1" parent="1">
          <mxGeometry x="50" y="130" width="90" height="30" as="geometry" />
        </mxCell>
        <mxCell id="wL283nahEsRfDJyT6Ts5-375" value="pull" style="rounded=0;whiteSpace=wrap;html=1;sketch=1;curveFitting=1;jiggle=2;fillColor=#fad9d5;strokeColor=#ae4132;" vertex="1" parent="1">
          <mxGeometry x="80" y="170" width="90" height="30" as="geometry" />
        </mxCell>
        <mxCell id="wL283nahEsRfDJyT6Ts5-376" value="push" style="rounded=0;whiteSpace=wrap;html=1;sketch=1;curveFitting=1;jiggle=2;fillColor=#fad9d5;strokeColor=#ae4132;" vertex="1" parent="1">
          <mxGeometry x="80" y="210" width="90" height="30" as="geometry" />
        </mxCell>
        <mxCell id="wL283nahEsRfDJyT6Ts5-377" value="fetch" style="rounded=0;whiteSpace=wrap;html=1;sketch=1;curveFitting=1;jiggle=2;fillColor=#fad9d5;strokeColor=#ae4132;" vertex="1" parent="1">
          <mxGeometry x="80" y="250" width="90" height="30" as="geometry" />
        </mxCell>
        <mxCell id="wL283nahEsRfDJyT6Ts5-378" value="clone" style="rounded=0;whiteSpace=wrap;html=1;sketch=1;curveFitting=1;jiggle=2;fillColor=#fad9d5;strokeColor=#ae4132;" vertex="1" parent="1">
          <mxGeometry x="80" y="290" width="90" height="30" as="geometry" />
        </mxCell>
        <mxCell id="wL283nahEsRfDJyT6Ts5-386" value="branching" style="rounded=0;whiteSpace=wrap;html=1;sketch=1;curveFitting=1;jiggle=2;fillColor=#fad9d5;strokeColor=#ae4132;" vertex="1" parent="1">
          <mxGeometry x="340" y="350" width="90" height="30" as="geometry" />
        </mxCell>
        <mxCell id="wL283nahEsRfDJyT6Ts5-387" value="HEAD" style="rounded=0;whiteSpace=wrap;html=1;sketch=1;curveFitting=1;jiggle=2;fillColor=#d0cee2;strokeColor=#56517e;" vertex="1" parent="1">
          <mxGeometry x="90" y="450" width="90" height="30" as="geometry" />
        </mxCell>
        <mxCell id="wL283nahEsRfDJyT6Ts5-388" value="git switch&amp;nbsp;" style="rounded=0;whiteSpace=wrap;html=1;sketch=1;curveFitting=1;jiggle=2;fillColor=#d0cee2;strokeColor=#56517e;" vertex="1" parent="1">
          <mxGeometry x="90" y="490" width="90" height="30" as="geometry" />
        </mxCell>
        <mxCell id="wL283nahEsRfDJyT6Ts5-389" value="critical" style="rounded=0;whiteSpace=wrap;html=1;sketch=1;curveFitting=1;jiggle=2;fillColor=#b1ddf0;strokeColor=#10739e;" vertex="1" parent="1">
          <mxGeometry x="90" y="390" width="90" height="30" as="geometry" />
        </mxCell>
        <mxCell id="wL283nahEsRfDJyT6Ts5-390" value="important" style="rounded=0;whiteSpace=wrap;html=1;sketch=1;curveFitting=1;jiggle=2;fillColor=#b1ddf0;strokeColor=#10739e;" vertex="1" parent="1">
          <mxGeometry x="340" y="390" width="90" height="30" as="geometry" />
        </mxCell>
        <mxCell id="wL283nahEsRfDJyT6Ts5-391" value="nive to have" style="rounded=0;whiteSpace=wrap;html=1;sketch=1;curveFitting=1;jiggle=2;fillColor=#b1ddf0;strokeColor=#10739e;" vertex="1" parent="1">
          <mxGeometry x="560" y="390" width="90" height="30" as="geometry" />
        </mxCell>
        <mxCell id="wL283nahEsRfDJyT6Ts5-392" value="checkout" style="rounded=0;whiteSpace=wrap;html=1;sketch=1;curveFitting=1;jiggle=2;fillColor=#d0cee2;strokeColor=#56517e;" vertex="1" parent="1">
          <mxGeometry x="90" y="535" width="90" height="30" as="geometry" />
        </mxCell>
        <mxCell id="wL283nahEsRfDJyT6Ts5-393" value="create branch" style="rounded=0;whiteSpace=wrap;html=1;sketch=1;curveFitting=1;jiggle=2;fillColor=#d0cee2;strokeColor=#56517e;" vertex="1" parent="1">
          <mxGeometry x="340" y="440" width="90" height="30" as="geometry" />
        </mxCell>
        <mxCell id="wL283nahEsRfDJyT6Ts5-394" value="rename" style="rounded=0;whiteSpace=wrap;html=1;sketch=1;curveFitting=1;jiggle=2;fillColor=#d0cee2;strokeColor=#56517e;" vertex="1" parent="1">
          <mxGeometry x="340" y="480" width="90" height="30" as="geometry" />
        </mxCell>
        <mxCell id="wL283nahEsRfDJyT6Ts5-395" value="delete branch" style="rounded=0;whiteSpace=wrap;html=1;sketch=1;curveFitting=1;jiggle=2;fillColor=#d0cee2;strokeColor=#56517e;" vertex="1" parent="1">
          <mxGeometry x="340" y="520" width="90" height="30" as="geometry" />
        </mxCell>
        <mxCell id="wL283nahEsRfDJyT6Ts5-396" value="master and main" style="rounded=0;whiteSpace=wrap;html=1;sketch=1;curveFitting=1;jiggle=2;fillColor=#d0cee2;strokeColor=#56517e;" vertex="1" parent="1">
          <mxGeometry x="560" y="440" width="90" height="30" as="geometry" />
        </mxCell>
        <mxCell id="wL283nahEsRfDJyT6Ts5-398" value="commit&lt;br&gt;1" style="ellipse;whiteSpace=wrap;html=1;aspect=fixed;sketch=1;hachureGap=4;jiggle=2;curveFitting=1;fontFamily=Architects Daughter;fontSource=https%3A%2F%2Ffonts.googleapis.com%2Fcss%3Ffamily%3DArchitects%2BDaughter;fillColor=#fad9d5;strokeColor=#ae4132;" vertex="1" parent="1">
          <mxGeometry x="90" y="1190" width="60" height="60" as="geometry" />
        </mxCell>
        <mxCell id="wL283nahEsRfDJyT6Ts5-406" value="" style="edgeStyle=orthogonalEdgeStyle;rounded=0;sketch=1;hachureGap=4;jiggle=2;curveFitting=1;orthogonalLoop=1;jettySize=auto;html=1;fontFamily=Architects Daughter;fontSource=https%3A%2F%2Ffonts.googleapis.com%2Fcss%3Ffamily%3DArchitects%2BDaughter;" edge="1" parent="1" source="wL283nahEsRfDJyT6Ts5-399" target="wL283nahEsRfDJyT6Ts5-400">
          <mxGeometry relative="1" as="geometry" />
        </mxCell>
        <mxCell id="wL283nahEsRfDJyT6Ts5-472" style="edgeStyle=orthogonalEdgeStyle;rounded=0;sketch=1;hachureGap=4;jiggle=2;curveFitting=1;orthogonalLoop=1;jettySize=auto;html=1;fontFamily=Architects Daughter;fontSource=https%3A%2F%2Ffonts.googleapis.com%2Fcss%3Ffamily%3DArchitects%2BDaughter;" edge="1" parent="1" source="wL283nahEsRfDJyT6Ts5-399" target="wL283nahEsRfDJyT6Ts5-471">
          <mxGeometry relative="1" as="geometry" />
        </mxCell>
        <mxCell id="wL283nahEsRfDJyT6Ts5-399" value="commit&lt;br&gt;3" style="ellipse;whiteSpace=wrap;html=1;aspect=fixed;sketch=1;hachureGap=4;jiggle=2;curveFitting=1;fontFamily=Architects Daughter;fontSource=https%3A%2F%2Ffonts.googleapis.com%2Fcss%3Ffamily%3DArchitects%2BDaughter;fillColor=#fad9d5;strokeColor=#ae4132;" vertex="1" parent="1">
          <mxGeometry x="290" y="1190" width="60" height="60" as="geometry" />
        </mxCell>
        <mxCell id="wL283nahEsRfDJyT6Ts5-407" value="" style="edgeStyle=orthogonalEdgeStyle;rounded=0;sketch=1;hachureGap=4;jiggle=2;curveFitting=1;orthogonalLoop=1;jettySize=auto;html=1;fontFamily=Architects Daughter;fontSource=https%3A%2F%2Ffonts.googleapis.com%2Fcss%3Ffamily%3DArchitects%2BDaughter;" edge="1" parent="1" source="wL283nahEsRfDJyT6Ts5-400" target="wL283nahEsRfDJyT6Ts5-398">
          <mxGeometry relative="1" as="geometry" />
        </mxCell>
        <mxCell id="wL283nahEsRfDJyT6Ts5-400" value="commit&lt;br&gt;2" style="ellipse;whiteSpace=wrap;html=1;aspect=fixed;sketch=1;hachureGap=4;jiggle=2;curveFitting=1;fontFamily=Architects Daughter;fontSource=https%3A%2F%2Ffonts.googleapis.com%2Fcss%3Ffamily%3DArchitects%2BDaughter;fillColor=#fad9d5;strokeColor=#ae4132;" vertex="1" parent="1">
          <mxGeometry x="190" y="1190" width="60" height="60" as="geometry" />
        </mxCell>
        <mxCell id="wL283nahEsRfDJyT6Ts5-410" value="work dir" style="shape=cylinder3;whiteSpace=wrap;html=1;boundedLbl=1;backgroundOutline=1;size=15;sketch=1;hachureGap=4;jiggle=2;curveFitting=1;fontFamily=Architects Daughter;fontSource=https%3A%2F%2Ffonts.googleapis.com%2Fcss%3Ffamily%3DArchitects%2BDaughter;" vertex="1" parent="1">
          <mxGeometry x="80" y="760" width="150" height="50" as="geometry" />
        </mxCell>
        <mxCell id="wL283nahEsRfDJyT6Ts5-411" value="staging area" style="shape=cylinder3;whiteSpace=wrap;html=1;boundedLbl=1;backgroundOutline=1;size=15;sketch=1;hachureGap=4;jiggle=2;curveFitting=1;fontFamily=Architects Daughter;fontSource=https%3A%2F%2Ffonts.googleapis.com%2Fcss%3Ffamily%3DArchitects%2BDaughter;" vertex="1" parent="1">
          <mxGeometry x="310" y="760" width="150" height="50" as="geometry" />
        </mxCell>
        <mxCell id="wL283nahEsRfDJyT6Ts5-412" value="repo" style="shape=cylinder3;whiteSpace=wrap;html=1;boundedLbl=1;backgroundOutline=1;size=15;sketch=1;hachureGap=4;jiggle=2;curveFitting=1;fontFamily=Architects Daughter;fontSource=https%3A%2F%2Ffonts.googleapis.com%2Fcss%3Ffamily%3DArchitects%2BDaughter;" vertex="1" parent="1">
          <mxGeometry x="520" y="760" width="150" height="50" as="geometry" />
        </mxCell>
        <mxCell id="wL283nahEsRfDJyT6Ts5-413" value="file1.txt" style="shape=process;whiteSpace=wrap;html=1;backgroundOutline=1;sketch=1;hachureGap=4;jiggle=2;curveFitting=1;fontFamily=Architects Daughter;fontSource=https%3A%2F%2Ffonts.googleapis.com%2Fcss%3Ffamily%3DArchitects%2BDaughter;fillColor=#fad7ac;strokeColor=#b46504;" vertex="1" parent="1">
          <mxGeometry x="90" y="670" width="60" height="40" as="geometry" />
        </mxCell>
        <mxCell id="wL283nahEsRfDJyT6Ts5-414" value="file1.txt" style="shape=process;whiteSpace=wrap;html=1;backgroundOutline=1;sketch=1;hachureGap=4;jiggle=2;curveFitting=1;fontFamily=Architects Daughter;fontSource=https%3A%2F%2Ffonts.googleapis.com%2Fcss%3Ffamily%3DArchitects%2BDaughter;fillColor=#fad7ac;strokeColor=#b46504;" vertex="1" parent="1">
          <mxGeometry x="310" y="670" width="60" height="40" as="geometry" />
        </mxCell>
        <mxCell id="wL283nahEsRfDJyT6Ts5-415" value="1" style="shape=tape;whiteSpace=wrap;html=1;sketch=1;hachureGap=4;jiggle=2;curveFitting=1;fontFamily=Architects Daughter;fontSource=https%3A%2F%2Ffonts.googleapis.com%2Fcss%3Ffamily%3DArchitects%2BDaughter;fillColor=#bac8d3;strokeColor=#23445d;" vertex="1" parent="1">
          <mxGeometry x="550" y="760" width="90" height="20" as="geometry" />
        </mxCell>
        <mxCell id="wL283nahEsRfDJyT6Ts5-416" value="file12txt" style="shape=process;whiteSpace=wrap;html=1;backgroundOutline=1;sketch=1;hachureGap=4;jiggle=2;curveFitting=1;fontFamily=Architects Daughter;fontSource=https%3A%2F%2Ffonts.googleapis.com%2Fcss%3Ffamily%3DArchitects%2BDaughter;fillColor=#fad7ac;strokeColor=#b46504;" vertex="1" parent="1">
          <mxGeometry x="105" y="710" width="60" height="40" as="geometry" />
        </mxCell>
        <mxCell id="wL283nahEsRfDJyT6Ts5-417" value="file12txt" style="shape=process;whiteSpace=wrap;html=1;backgroundOutline=1;sketch=1;hachureGap=4;jiggle=2;curveFitting=1;fontFamily=Architects Daughter;fontSource=https%3A%2F%2Ffonts.googleapis.com%2Fcss%3Ffamily%3DArchitects%2BDaughter;fillColor=#fad7ac;strokeColor=#b46504;" vertex="1" parent="1">
          <mxGeometry x="330" y="710" width="60" height="40" as="geometry" />
        </mxCell>
        <mxCell id="wL283nahEsRfDJyT6Ts5-418" value="2" style="shape=tape;whiteSpace=wrap;html=1;sketch=1;hachureGap=4;jiggle=2;curveFitting=1;fontFamily=Architects Daughter;fontSource=https%3A%2F%2Ffonts.googleapis.com%2Fcss%3Ffamily%3DArchitects%2BDaughter;fillColor=#bac8d3;strokeColor=#23445d;" vertex="1" parent="1">
          <mxGeometry x="550" y="740" width="90" height="20" as="geometry" />
        </mxCell>
        <mxCell id="wL283nahEsRfDJyT6Ts5-419" value="3" style="shape=tape;whiteSpace=wrap;html=1;sketch=1;hachureGap=4;jiggle=2;curveFitting=1;fontFamily=Architects Daughter;fontSource=https%3A%2F%2Ffonts.googleapis.com%2Fcss%3Ffamily%3DArchitects%2BDaughter;fillColor=#bac8d3;strokeColor=#23445d;" vertex="1" parent="1">
          <mxGeometry x="550" y="720" width="90" height="20" as="geometry" />
        </mxCell>
        <mxCell id="wL283nahEsRfDJyT6Ts5-420" value="4" style="shape=tape;whiteSpace=wrap;html=1;sketch=1;hachureGap=4;jiggle=2;curveFitting=1;fontFamily=Architects Daughter;fontSource=https%3A%2F%2Ffonts.googleapis.com%2Fcss%3Ffamily%3DArchitects%2BDaughter;fillColor=#bac8d3;strokeColor=#23445d;" vertex="1" parent="1">
          <mxGeometry x="550" y="700" width="90" height="20" as="geometry" />
        </mxCell>
        <mxCell id="wL283nahEsRfDJyT6Ts5-424" value="231rF5123412s5121nbh1jg24c1f24" style="rounded=0;whiteSpace=wrap;html=1;sketch=1;hachureGap=4;jiggle=2;curveFitting=1;fontFamily=Architects Daughter;fontSource=https%3A%2F%2Ffonts.googleapis.com%2Fcss%3Ffamily%3DArchitects%2BDaughter;fillColor=#fad9d5;strokeColor=#ae4132;" vertex="1" parent="1">
          <mxGeometry x="370" y="850" width="170" height="20" as="geometry" />
        </mxCell>
        <mxCell id="wL283nahEsRfDJyT6Ts5-434" style="edgeStyle=orthogonalEdgeStyle;rounded=0;sketch=1;hachureGap=4;jiggle=2;curveFitting=1;orthogonalLoop=1;jettySize=auto;html=1;entryX=1;entryY=0.5;entryDx=0;entryDy=0;fontFamily=Architects Daughter;fontSource=https%3A%2F%2Ffonts.googleapis.com%2Fcss%3Ffamily%3DArchitects%2BDaughter;" edge="1" parent="1" source="wL283nahEsRfDJyT6Ts5-425" target="wL283nahEsRfDJyT6Ts5-429">
          <mxGeometry relative="1" as="geometry" />
        </mxCell>
        <mxCell id="wL283nahEsRfDJyT6Ts5-425" value="parent" style="rounded=0;whiteSpace=wrap;html=1;sketch=1;hachureGap=4;jiggle=2;curveFitting=1;fontFamily=Architects Daughter;fontSource=https%3A%2F%2Ffonts.googleapis.com%2Fcss%3Ffamily%3DArchitects%2BDaughter;fillColor=#bac8d3;strokeColor=#23445d;" vertex="1" parent="1">
          <mxGeometry x="370" y="870" width="50" height="20" as="geometry" />
        </mxCell>
        <mxCell id="wL283nahEsRfDJyT6Ts5-426" value="54322543225432a" style="rounded=0;whiteSpace=wrap;html=1;sketch=1;hachureGap=4;jiggle=2;curveFitting=1;fontFamily=Architects Daughter;fontSource=https%3A%2F%2Ffonts.googleapis.com%2Fcss%3Ffamily%3DArchitects%2BDaughter;fillColor=#d0cee2;strokeColor=#56517e;" vertex="1" parent="1">
          <mxGeometry x="420" y="870" width="120" height="20" as="geometry" />
        </mxCell>
        <mxCell id="wL283nahEsRfDJyT6Ts5-427" value="message" style="rounded=0;whiteSpace=wrap;html=1;sketch=1;hachureGap=4;jiggle=2;curveFitting=1;fontFamily=Architects Daughter;fontSource=https%3A%2F%2Ffonts.googleapis.com%2Fcss%3Ffamily%3DArchitects%2BDaughter;fillColor=#bac8d3;strokeColor=#23445d;" vertex="1" parent="1">
          <mxGeometry x="370" y="890" width="110" height="20" as="geometry" />
        </mxCell>
        <mxCell id="wL283nahEsRfDJyT6Ts5-428" value="blabla" style="rounded=0;whiteSpace=wrap;html=1;sketch=1;hachureGap=4;jiggle=2;curveFitting=1;fontFamily=Architects Daughter;fontSource=https%3A%2F%2Ffonts.googleapis.com%2Fcss%3Ffamily%3DArchitects%2BDaughter;fillColor=#d0cee2;strokeColor=#56517e;" vertex="1" parent="1">
          <mxGeometry x="480" y="890" width="60" height="20" as="geometry" />
        </mxCell>
        <mxCell id="wL283nahEsRfDJyT6Ts5-429" value="54322543225432a" style="rounded=0;whiteSpace=wrap;html=1;sketch=1;hachureGap=4;jiggle=2;curveFitting=1;fontFamily=Architects Daughter;fontSource=https%3A%2F%2Ffonts.googleapis.com%2Fcss%3Ffamily%3DArchitects%2BDaughter;fillColor=#fad9d5;strokeColor=#ae4132;" vertex="1" parent="1">
          <mxGeometry x="105" y="850" width="170" height="20" as="geometry" />
        </mxCell>
        <mxCell id="wL283nahEsRfDJyT6Ts5-430" value="parent" style="rounded=0;whiteSpace=wrap;html=1;sketch=1;hachureGap=4;jiggle=2;curveFitting=1;fontFamily=Architects Daughter;fontSource=https%3A%2F%2Ffonts.googleapis.com%2Fcss%3Ffamily%3DArchitects%2BDaughter;fillColor=#bac8d3;strokeColor=#23445d;" vertex="1" parent="1">
          <mxGeometry x="105" y="870" width="50" height="20" as="geometry" />
        </mxCell>
        <mxCell id="wL283nahEsRfDJyT6Ts5-431" value="none" style="rounded=0;whiteSpace=wrap;html=1;sketch=1;hachureGap=4;jiggle=2;curveFitting=1;fontFamily=Architects Daughter;fontSource=https%3A%2F%2Ffonts.googleapis.com%2Fcss%3Ffamily%3DArchitects%2BDaughter;fillColor=#d0cee2;strokeColor=#56517e;" vertex="1" parent="1">
          <mxGeometry x="155" y="870" width="120" height="20" as="geometry" />
        </mxCell>
        <mxCell id="wL283nahEsRfDJyT6Ts5-432" value="message" style="rounded=0;whiteSpace=wrap;html=1;sketch=1;hachureGap=4;jiggle=2;curveFitting=1;fontFamily=Architects Daughter;fontSource=https%3A%2F%2Ffonts.googleapis.com%2Fcss%3Ffamily%3DArchitects%2BDaughter;fillColor=#bac8d3;strokeColor=#23445d;" vertex="1" parent="1">
          <mxGeometry x="105" y="890" width="110" height="20" as="geometry" />
        </mxCell>
        <mxCell id="wL283nahEsRfDJyT6Ts5-433" value="blabla" style="rounded=0;whiteSpace=wrap;html=1;sketch=1;hachureGap=4;jiggle=2;curveFitting=1;fontFamily=Architects Daughter;fontSource=https%3A%2F%2Ffonts.googleapis.com%2Fcss%3Ffamily%3DArchitects%2BDaughter;fillColor=#d0cee2;strokeColor=#56517e;" vertex="1" parent="1">
          <mxGeometry x="215" y="890" width="60" height="20" as="geometry" />
        </mxCell>
        <mxCell id="wL283nahEsRfDJyT6Ts5-435" value="6666266262626262626262" style="rounded=0;whiteSpace=wrap;html=1;sketch=1;hachureGap=4;jiggle=2;curveFitting=1;fontFamily=Architects Daughter;fontSource=https%3A%2F%2Ffonts.googleapis.com%2Fcss%3Ffamily%3DArchitects%2BDaughter;fillColor=#fad9d5;strokeColor=#ae4132;" vertex="1" parent="1">
          <mxGeometry x="610" y="850" width="170" height="20" as="geometry" />
        </mxCell>
        <mxCell id="wL283nahEsRfDJyT6Ts5-440" style="edgeStyle=orthogonalEdgeStyle;rounded=0;sketch=1;hachureGap=4;jiggle=2;curveFitting=1;orthogonalLoop=1;jettySize=auto;html=1;entryX=1;entryY=0.5;entryDx=0;entryDy=0;fontFamily=Architects Daughter;fontSource=https%3A%2F%2Ffonts.googleapis.com%2Fcss%3Ffamily%3DArchitects%2BDaughter;" edge="1" parent="1" source="wL283nahEsRfDJyT6Ts5-436" target="wL283nahEsRfDJyT6Ts5-424">
          <mxGeometry relative="1" as="geometry" />
        </mxCell>
        <mxCell id="wL283nahEsRfDJyT6Ts5-436" value="parent" style="rounded=0;whiteSpace=wrap;html=1;sketch=1;hachureGap=4;jiggle=2;curveFitting=1;fontFamily=Architects Daughter;fontSource=https%3A%2F%2Ffonts.googleapis.com%2Fcss%3Ffamily%3DArchitects%2BDaughter;fillColor=#bac8d3;strokeColor=#23445d;" vertex="1" parent="1">
          <mxGeometry x="610" y="870" width="50" height="20" as="geometry" />
        </mxCell>
        <mxCell id="wL283nahEsRfDJyT6Ts5-437" value="231rF5123412s5" style="rounded=0;whiteSpace=wrap;html=1;sketch=1;hachureGap=4;jiggle=2;curveFitting=1;fontFamily=Architects Daughter;fontSource=https%3A%2F%2Ffonts.googleapis.com%2Fcss%3Ffamily%3DArchitects%2BDaughter;fillColor=#d0cee2;strokeColor=#56517e;" vertex="1" parent="1">
          <mxGeometry x="660" y="870" width="120" height="20" as="geometry" />
        </mxCell>
        <mxCell id="wL283nahEsRfDJyT6Ts5-438" value="message" style="rounded=0;whiteSpace=wrap;html=1;sketch=1;hachureGap=4;jiggle=2;curveFitting=1;fontFamily=Architects Daughter;fontSource=https%3A%2F%2Ffonts.googleapis.com%2Fcss%3Ffamily%3DArchitects%2BDaughter;fillColor=#bac8d3;strokeColor=#23445d;" vertex="1" parent="1">
          <mxGeometry x="610" y="890" width="110" height="20" as="geometry" />
        </mxCell>
        <mxCell id="wL283nahEsRfDJyT6Ts5-439" value="blabla" style="rounded=0;whiteSpace=wrap;html=1;sketch=1;hachureGap=4;jiggle=2;curveFitting=1;fontFamily=Architects Daughter;fontSource=https%3A%2F%2Ffonts.googleapis.com%2Fcss%3Ffamily%3DArchitects%2BDaughter;fillColor=#d0cee2;strokeColor=#56517e;" vertex="1" parent="1">
          <mxGeometry x="720" y="890" width="60" height="20" as="geometry" />
        </mxCell>
        <mxCell id="wL283nahEsRfDJyT6Ts5-443" value="HEAD" style="shape=dataStorage;whiteSpace=wrap;html=1;fixedSize=1;sketch=1;hachureGap=4;jiggle=2;curveFitting=1;fontFamily=Architects Daughter;fontSource=https%3A%2F%2Ffonts.googleapis.com%2Fcss%3Ffamily%3DArchitects%2BDaughter;rotation=90;fillColor=#bac8d3;strokeColor=#23445d;" vertex="1" parent="1">
          <mxGeometry x="587.5" y="1310" width="65" height="30" as="geometry" />
        </mxCell>
        <mxCell id="wL283nahEsRfDJyT6Ts5-446" value="main" style="shape=hexagon;perimeter=hexagonPerimeter2;whiteSpace=wrap;html=1;fixedSize=1;sketch=1;hachureGap=4;jiggle=2;curveFitting=1;fontFamily=Architects Daughter;fontSource=https%3A%2F%2Ffonts.googleapis.com%2Fcss%3Ffamily%3DArchitects%2BDaughter;" vertex="1" parent="1">
          <mxGeometry x="600" y="1250" width="40" height="40" as="geometry" />
        </mxCell>
        <mxCell id="wL283nahEsRfDJyT6Ts5-457" style="edgeStyle=orthogonalEdgeStyle;rounded=0;sketch=1;hachureGap=4;jiggle=2;curveFitting=1;orthogonalLoop=1;jettySize=auto;html=1;fontFamily=Architects Daughter;fontSource=https%3A%2F%2Ffonts.googleapis.com%2Fcss%3Ffamily%3DArchitects%2BDaughter;" edge="1" parent="1" source="wL283nahEsRfDJyT6Ts5-447" target="wL283nahEsRfDJyT6Ts5-455">
          <mxGeometry relative="1" as="geometry" />
        </mxCell>
        <mxCell id="wL283nahEsRfDJyT6Ts5-447" value="dark theme" style="shape=umlActor;verticalLabelPosition=bottom;verticalAlign=top;html=1;outlineConnect=0;sketch=1;hachureGap=4;jiggle=2;curveFitting=1;fontFamily=Architects Daughter;fontSource=https%3A%2F%2Ffonts.googleapis.com%2Fcss%3Ffamily%3DArchitects%2BDaughter;" vertex="1" parent="1">
          <mxGeometry x="100" y="1100" width="30" height="60" as="geometry" />
        </mxCell>
        <mxCell id="wL283nahEsRfDJyT6Ts5-474" style="edgeStyle=orthogonalEdgeStyle;rounded=0;sketch=1;hachureGap=4;jiggle=2;curveFitting=1;orthogonalLoop=1;jettySize=auto;html=1;entryX=0;entryY=0.5;entryDx=0;entryDy=0;fontFamily=Architects Daughter;fontSource=https%3A%2F%2Ffonts.googleapis.com%2Fcss%3Ffamily%3DArchitects%2BDaughter;" edge="1" parent="1" source="wL283nahEsRfDJyT6Ts5-448" target="wL283nahEsRfDJyT6Ts5-466">
          <mxGeometry relative="1" as="geometry" />
        </mxCell>
        <mxCell id="wL283nahEsRfDJyT6Ts5-448" value="media sharing" style="shape=umlActor;verticalLabelPosition=bottom;verticalAlign=top;html=1;outlineConnect=0;sketch=1;hachureGap=4;jiggle=2;curveFitting=1;fontFamily=Architects Daughter;fontSource=https%3A%2F%2Ffonts.googleapis.com%2Fcss%3Ffamily%3DArchitects%2BDaughter;" vertex="1" parent="1">
          <mxGeometry x="100" y="1320" width="30" height="60" as="geometry" />
        </mxCell>
        <mxCell id="wL283nahEsRfDJyT6Ts5-456" style="rounded=0;sketch=1;hachureGap=4;jiggle=2;curveFitting=1;orthogonalLoop=1;jettySize=auto;html=1;entryX=0.5;entryY=0;entryDx=0;entryDy=0;fontFamily=Architects Daughter;fontSource=https%3A%2F%2Ffonts.googleapis.com%2Fcss%3Ffamily%3DArchitects%2BDaughter;" edge="1" parent="1" source="wL283nahEsRfDJyT6Ts5-455" target="wL283nahEsRfDJyT6Ts5-399">
          <mxGeometry relative="1" as="geometry" />
        </mxCell>
        <mxCell id="wL283nahEsRfDJyT6Ts5-460" style="edgeStyle=orthogonalEdgeStyle;rounded=0;sketch=1;hachureGap=4;jiggle=2;curveFitting=1;orthogonalLoop=1;jettySize=auto;html=1;fontFamily=Architects Daughter;fontSource=https%3A%2F%2Ffonts.googleapis.com%2Fcss%3Ffamily%3DArchitects%2BDaughter;" edge="1" parent="1" source="wL283nahEsRfDJyT6Ts5-455" target="wL283nahEsRfDJyT6Ts5-459">
          <mxGeometry relative="1" as="geometry" />
        </mxCell>
        <mxCell id="wL283nahEsRfDJyT6Ts5-455" value="commit&lt;br&gt;1" style="ellipse;whiteSpace=wrap;html=1;aspect=fixed;sketch=1;hachureGap=4;jiggle=2;curveFitting=1;fontFamily=Architects Daughter;fontSource=https%3A%2F%2Ffonts.googleapis.com%2Fcss%3Ffamily%3DArchitects%2BDaughter;fillColor=#bac8d3;strokeColor=#23445d;" vertex="1" parent="1">
          <mxGeometry x="360" y="1100" width="60" height="60" as="geometry" />
        </mxCell>
        <mxCell id="wL283nahEsRfDJyT6Ts5-462" value="" style="edgeStyle=orthogonalEdgeStyle;rounded=0;sketch=1;hachureGap=4;jiggle=2;curveFitting=1;orthogonalLoop=1;jettySize=auto;html=1;fontFamily=Architects Daughter;fontSource=https%3A%2F%2Ffonts.googleapis.com%2Fcss%3Ffamily%3DArchitects%2BDaughter;" edge="1" parent="1" source="wL283nahEsRfDJyT6Ts5-459" target="wL283nahEsRfDJyT6Ts5-461">
          <mxGeometry relative="1" as="geometry" />
        </mxCell>
        <mxCell id="wL283nahEsRfDJyT6Ts5-459" value="commit&lt;br&gt;2" style="ellipse;whiteSpace=wrap;html=1;aspect=fixed;sketch=1;hachureGap=4;jiggle=2;curveFitting=1;fontFamily=Architects Daughter;fontSource=https%3A%2F%2Ffonts.googleapis.com%2Fcss%3Ffamily%3DArchitects%2BDaughter;fillColor=#bac8d3;strokeColor=#23445d;" vertex="1" parent="1">
          <mxGeometry x="440" y="1100" width="60" height="60" as="geometry" />
        </mxCell>
        <mxCell id="wL283nahEsRfDJyT6Ts5-464" style="rounded=0;sketch=1;hachureGap=4;jiggle=2;curveFitting=1;orthogonalLoop=1;jettySize=auto;html=1;fontFamily=Architects Daughter;fontSource=https%3A%2F%2Ffonts.googleapis.com%2Fcss%3Ffamily%3DArchitects%2BDaughter;" edge="1" parent="1" source="wL283nahEsRfDJyT6Ts5-461" target="wL283nahEsRfDJyT6Ts5-463">
          <mxGeometry relative="1" as="geometry" />
        </mxCell>
        <mxCell id="wL283nahEsRfDJyT6Ts5-461" value="commit&lt;br&gt;3" style="ellipse;whiteSpace=wrap;html=1;aspect=fixed;sketch=1;hachureGap=4;jiggle=2;curveFitting=1;fontFamily=Architects Daughter;fontSource=https%3A%2F%2Ffonts.googleapis.com%2Fcss%3Ffamily%3DArchitects%2BDaughter;fillColor=#bac8d3;strokeColor=#23445d;" vertex="1" parent="1">
          <mxGeometry x="520" y="1100" width="60" height="60" as="geometry" />
        </mxCell>
        <mxCell id="wL283nahEsRfDJyT6Ts5-463" value="commit&lt;br&gt;5" style="ellipse;whiteSpace=wrap;html=1;aspect=fixed;sketch=1;hachureGap=4;jiggle=2;curveFitting=1;fontFamily=Architects Daughter;fontSource=https%3A%2F%2Ffonts.googleapis.com%2Fcss%3Ffamily%3DArchitects%2BDaughter;fillColor=#fad9d5;strokeColor=#ae4132;" vertex="1" parent="1">
          <mxGeometry x="590" y="1190" width="60" height="60" as="geometry" />
        </mxCell>
        <mxCell id="wL283nahEsRfDJyT6Ts5-469" style="edgeStyle=orthogonalEdgeStyle;rounded=0;sketch=1;hachureGap=4;jiggle=2;curveFitting=1;orthogonalLoop=1;jettySize=auto;html=1;entryX=0;entryY=0.5;entryDx=0;entryDy=0;fontFamily=Architects Daughter;fontSource=https%3A%2F%2Ffonts.googleapis.com%2Fcss%3Ffamily%3DArchitects%2BDaughter;" edge="1" parent="1" source="wL283nahEsRfDJyT6Ts5-466" target="wL283nahEsRfDJyT6Ts5-468">
          <mxGeometry relative="1" as="geometry" />
        </mxCell>
        <mxCell id="wL283nahEsRfDJyT6Ts5-475" style="rounded=0;sketch=1;hachureGap=4;jiggle=2;curveFitting=1;orthogonalLoop=1;jettySize=auto;html=1;fontFamily=Architects Daughter;fontSource=https%3A%2F%2Ffonts.googleapis.com%2Fcss%3Ffamily%3DArchitects%2BDaughter;" edge="1" parent="1" source="wL283nahEsRfDJyT6Ts5-466" target="wL283nahEsRfDJyT6Ts5-399">
          <mxGeometry relative="1" as="geometry" />
        </mxCell>
        <mxCell id="wL283nahEsRfDJyT6Ts5-466" value="commit&lt;br&gt;1" style="ellipse;whiteSpace=wrap;html=1;aspect=fixed;sketch=1;hachureGap=4;jiggle=2;curveFitting=1;fontFamily=Architects Daughter;fontSource=https%3A%2F%2Ffonts.googleapis.com%2Fcss%3Ffamily%3DArchitects%2BDaughter;fillColor=#cdeb8b;strokeColor=#36393d;" vertex="1" parent="1">
          <mxGeometry x="400" y="1320" width="60" height="60" as="geometry" />
        </mxCell>
        <mxCell id="wL283nahEsRfDJyT6Ts5-470" style="edgeStyle=orthogonalEdgeStyle;rounded=0;sketch=1;hachureGap=4;jiggle=2;curveFitting=1;orthogonalLoop=1;jettySize=auto;html=1;fontFamily=Architects Daughter;fontSource=https%3A%2F%2Ffonts.googleapis.com%2Fcss%3Ffamily%3DArchitects%2BDaughter;entryX=0.5;entryY=1;entryDx=0;entryDy=0;" edge="1" parent="1" source="wL283nahEsRfDJyT6Ts5-468" target="wL283nahEsRfDJyT6Ts5-471">
          <mxGeometry relative="1" as="geometry">
            <mxPoint x="520" y="1220" as="targetPoint" />
            <Array as="points" />
          </mxGeometry>
        </mxCell>
        <mxCell id="wL283nahEsRfDJyT6Ts5-468" value="commit&lt;br&gt;2" style="ellipse;whiteSpace=wrap;html=1;aspect=fixed;sketch=1;hachureGap=4;jiggle=2;curveFitting=1;fontFamily=Architects Daughter;fontSource=https%3A%2F%2Ffonts.googleapis.com%2Fcss%3Ffamily%3DArchitects%2BDaughter;fillColor=#cdeb8b;strokeColor=#36393d;" vertex="1" parent="1">
          <mxGeometry x="490" y="1320" width="60" height="60" as="geometry" />
        </mxCell>
        <mxCell id="wL283nahEsRfDJyT6Ts5-473" style="edgeStyle=orthogonalEdgeStyle;rounded=0;sketch=1;hachureGap=4;jiggle=2;curveFitting=1;orthogonalLoop=1;jettySize=auto;html=1;fontFamily=Architects Daughter;fontSource=https%3A%2F%2Ffonts.googleapis.com%2Fcss%3Ffamily%3DArchitects%2BDaughter;" edge="1" parent="1" source="wL283nahEsRfDJyT6Ts5-471" target="wL283nahEsRfDJyT6Ts5-463">
          <mxGeometry relative="1" as="geometry" />
        </mxCell>
        <mxCell id="wL283nahEsRfDJyT6Ts5-471" value="commit&lt;br&gt;4" style="ellipse;whiteSpace=wrap;html=1;aspect=fixed;sketch=1;hachureGap=4;jiggle=2;curveFitting=1;fontFamily=Architects Daughter;fontSource=https%3A%2F%2Ffonts.googleapis.com%2Fcss%3Ffamily%3DArchitects%2BDaughter;fillColor=#fad9d5;strokeColor=#ae4132;" vertex="1" parent="1">
          <mxGeometry x="490" y="1190" width="60" height="60" as="geometry" />
        </mxCell>
        <mxCell id="wL283nahEsRfDJyT6Ts5-476" value="main" style="shape=hexagon;perimeter=hexagonPerimeter2;whiteSpace=wrap;html=1;fixedSize=1;sketch=1;hachureGap=4;jiggle=2;curveFitting=1;fontFamily=Architects Daughter;fontSource=https%3A%2F%2Ffonts.googleapis.com%2Fcss%3Ffamily%3DArchitects%2BDaughter;" vertex="1" parent="1">
          <mxGeometry x="40" y="1200" width="40" height="40" as="geometry" />
        </mxCell>
        <mxCell id="wL283nahEsRfDJyT6Ts5-479" style="rounded=0;sketch=1;hachureGap=4;jiggle=2;curveFitting=1;orthogonalLoop=1;jettySize=auto;html=1;fontFamily=Architects Daughter;fontSource=https%3A%2F%2Ffonts.googleapis.com%2Fcss%3Ffamily%3DArchitects%2BDaughter;" edge="1" parent="1" source="wL283nahEsRfDJyT6Ts5-477" target="wL283nahEsRfDJyT6Ts5-455">
          <mxGeometry relative="1" as="geometry" />
        </mxCell>
        <mxCell id="wL283nahEsRfDJyT6Ts5-477" value="commit&lt;br&gt;1" style="ellipse;whiteSpace=wrap;html=1;aspect=fixed;sketch=1;hachureGap=4;jiggle=2;curveFitting=1;fontFamily=Architects Daughter;fontSource=https%3A%2F%2Ffonts.googleapis.com%2Fcss%3Ffamily%3DArchitects%2BDaughter;fillColor=#bac8d3;strokeColor=#23445d;" vertex="1" parent="1">
          <mxGeometry x="440" y="1010" width="60" height="60" as="geometry" />
        </mxCell>
        <mxCell id="wL283nahEsRfDJyT6Ts5-478" style="rounded=0;sketch=1;hachureGap=4;jiggle=2;curveFitting=1;orthogonalLoop=1;jettySize=auto;html=1;entryX=0.23;entryY=0.021;entryDx=0;entryDy=0;entryPerimeter=0;fontFamily=Architects Daughter;fontSource=https%3A%2F%2Ffonts.googleapis.com%2Fcss%3Ffamily%3DArchitects%2BDaughter;" edge="1" parent="1" source="wL283nahEsRfDJyT6Ts5-477" target="wL283nahEsRfDJyT6Ts5-461">
          <mxGeometry relative="1" as="geometry" />
        </mxCell>
        <mxCell id="wL283nahEsRfDJyT6Ts5-480" value="" style="rounded=0;whiteSpace=wrap;html=1;sketch=1;hachureGap=4;jiggle=2;curveFitting=1;fontFamily=Architects Daughter;fontSource=https%3A%2F%2Ffonts.googleapis.com%2Fcss%3Ffamily%3DArchitects%2BDaughter;fillColor=#cdeb8b;strokeColor=none;" vertex="1" parent="1">
          <mxGeometry x="60" y="1600" width="660" height="60" as="geometry" />
        </mxCell>
        <mxCell id="wL283nahEsRfDJyT6Ts5-481" value="commit 1" style="ellipse;whiteSpace=wrap;html=1;aspect=fixed;sketch=1;hachureGap=4;jiggle=2;curveFitting=1;fontFamily=Architects Daughter;fontSource=https%3A%2F%2Ffonts.googleapis.com%2Fcss%3Ffamily%3DArchitects%2BDaughter;fillColor=#f5f5f5;gradientColor=#b3b3b3;strokeColor=#666666;" vertex="1" parent="1">
          <mxGeometry x="65" y="1610" width="40" height="40" as="geometry" />
        </mxCell>
        <mxCell id="wL283nahEsRfDJyT6Ts5-509" style="edgeStyle=orthogonalEdgeStyle;rounded=0;sketch=1;hachureGap=4;jiggle=2;curveFitting=1;orthogonalLoop=1;jettySize=auto;html=1;entryX=0;entryY=0.5;entryDx=0;entryDy=0;fontFamily=Architects Daughter;fontSource=https%3A%2F%2Ffonts.googleapis.com%2Fcss%3Ffamily%3DArchitects%2BDaughter;" edge="1" parent="1" source="wL283nahEsRfDJyT6Ts5-482" target="wL283nahEsRfDJyT6Ts5-508">
          <mxGeometry relative="1" as="geometry" />
        </mxCell>
        <mxCell id="wL283nahEsRfDJyT6Ts5-482" value="commit 2" style="ellipse;whiteSpace=wrap;html=1;aspect=fixed;sketch=1;hachureGap=4;jiggle=2;curveFitting=1;fontFamily=Architects Daughter;fontSource=https%3A%2F%2Ffonts.googleapis.com%2Fcss%3Ffamily%3DArchitects%2BDaughter;fillColor=#f5f5f5;gradientColor=#b3b3b3;strokeColor=#666666;" vertex="1" parent="1">
          <mxGeometry x="135" y="1610" width="40" height="40" as="geometry" />
        </mxCell>
        <mxCell id="wL283nahEsRfDJyT6Ts5-484" style="edgeStyle=orthogonalEdgeStyle;rounded=0;sketch=1;hachureGap=4;jiggle=2;curveFitting=1;orthogonalLoop=1;jettySize=auto;html=1;fontFamily=Architects Daughter;fontSource=https%3A%2F%2Ffonts.googleapis.com%2Fcss%3Ffamily%3DArchitects%2BDaughter;entryX=0.5;entryY=0;entryDx=0;entryDy=0;" edge="1" parent="1" source="wL283nahEsRfDJyT6Ts5-483" target="wL283nahEsRfDJyT6Ts5-508">
          <mxGeometry relative="1" as="geometry" />
        </mxCell>
        <mxCell id="wL283nahEsRfDJyT6Ts5-483" value="master" style="rounded=0;whiteSpace=wrap;html=1;sketch=1;hachureGap=4;jiggle=2;curveFitting=1;fontFamily=Architects Daughter;fontSource=https%3A%2F%2Ffonts.googleapis.com%2Fcss%3Ffamily%3DArchitects%2BDaughter;fillColor=#d5e8d4;gradientColor=#97d077;strokeColor=#82b366;" vertex="1" parent="1">
          <mxGeometry x="410" y="1555" width="70" height="20" as="geometry" />
        </mxCell>
        <mxCell id="wL283nahEsRfDJyT6Ts5-486" style="edgeStyle=orthogonalEdgeStyle;rounded=0;sketch=1;hachureGap=4;jiggle=2;curveFitting=1;orthogonalLoop=1;jettySize=auto;html=1;entryX=0.5;entryY=0;entryDx=0;entryDy=0;fontFamily=Architects Daughter;fontSource=https%3A%2F%2Ffonts.googleapis.com%2Fcss%3Ffamily%3DArchitects%2BDaughter;" edge="1" parent="1" source="wL283nahEsRfDJyT6Ts5-485" target="wL283nahEsRfDJyT6Ts5-483">
          <mxGeometry relative="1" as="geometry" />
        </mxCell>
        <mxCell id="wL283nahEsRfDJyT6Ts5-485" value="HEAD" style="rounded=0;whiteSpace=wrap;html=1;sketch=1;hachureGap=4;jiggle=2;curveFitting=1;fontFamily=Architects Daughter;fontSource=https%3A%2F%2Ffonts.googleapis.com%2Fcss%3Ffamily%3DArchitects%2BDaughter;fillColor=#fff2cc;gradientColor=#ffd966;strokeColor=#d6b656;" vertex="1" parent="1">
          <mxGeometry x="420" y="1505" width="50" height="30" as="geometry" />
        </mxCell>
        <mxCell id="wL283nahEsRfDJyT6Ts5-487" value="" style="rounded=0;whiteSpace=wrap;html=1;sketch=1;hachureGap=4;jiggle=2;curveFitting=1;fontFamily=Architects Daughter;fontSource=https%3A%2F%2Ffonts.googleapis.com%2Fcss%3Ffamily%3DArchitects%2BDaughter;fillColor=#080808;" vertex="1" parent="1">
          <mxGeometry x="527.5" y="1410" width="185" height="110" as="geometry" />
        </mxCell>
        <mxCell id="wL283nahEsRfDJyT6Ts5-494" value="" style="ellipse;whiteSpace=wrap;html=1;aspect=fixed;sketch=1;hachureGap=4;jiggle=2;curveFitting=1;fontFamily=Architects Daughter;fontSource=https%3A%2F%2Ffonts.googleapis.com%2Fcss%3Ffamily%3DArchitects%2BDaughter;fillColor=#fff2cc;gradientColor=#ffd966;strokeColor=#d6b656;" vertex="1" parent="1">
          <mxGeometry x="570" y="1425" width="80" height="80" as="geometry" />
        </mxCell>
        <mxCell id="wL283nahEsRfDJyT6Ts5-495" value="" style="ellipse;whiteSpace=wrap;html=1;aspect=fixed;sketch=1;hachureGap=4;jiggle=2;curveFitting=1;fontFamily=Architects Daughter;fontSource=https%3A%2F%2Ffonts.googleapis.com%2Fcss%3Ffamily%3DArchitects%2BDaughter;fillColor=#dae8fc;gradientColor=#7ea6e0;strokeColor=#6c8ebf;" vertex="1" parent="1">
          <mxGeometry x="590" y="1445" width="40" height="40" as="geometry" />
        </mxCell>
        <mxCell id="wL283nahEsRfDJyT6Ts5-498" style="edgeStyle=orthogonalEdgeStyle;rounded=0;sketch=1;hachureGap=4;jiggle=2;curveFitting=1;orthogonalLoop=1;jettySize=auto;html=1;entryX=0.5;entryY=1;entryDx=0;entryDy=0;fontFamily=Architects Daughter;fontSource=https%3A%2F%2Ffonts.googleapis.com%2Fcss%3Ffamily%3DArchitects%2BDaughter;" edge="1" parent="1" source="wL283nahEsRfDJyT6Ts5-497" target="wL283nahEsRfDJyT6Ts5-508">
          <mxGeometry relative="1" as="geometry">
            <Array as="points">
              <mxPoint x="460" y="1750" />
              <mxPoint x="445" y="1750" />
            </Array>
          </mxGeometry>
        </mxCell>
        <mxCell id="wL283nahEsRfDJyT6Ts5-497" value="DarkMode" style="rounded=0;whiteSpace=wrap;html=1;sketch=1;hachureGap=4;jiggle=2;curveFitting=1;fontFamily=Architects Daughter;fontSource=https%3A%2F%2Ffonts.googleapis.com%2Fcss%3Ffamily%3DArchitects%2BDaughter;fillColor=#e6d0de;gradientColor=#d5739d;strokeColor=#996185;" vertex="1" parent="1">
          <mxGeometry x="410" y="1750" width="70" height="20" as="geometry" />
        </mxCell>
        <mxCell id="wL283nahEsRfDJyT6Ts5-506" value="" style="edgeStyle=orthogonalEdgeStyle;rounded=0;sketch=1;hachureGap=4;jiggle=2;curveFitting=1;orthogonalLoop=1;jettySize=auto;html=1;fontFamily=Architects Daughter;fontSource=https%3A%2F%2Ffonts.googleapis.com%2Fcss%3Ffamily%3DArchitects%2BDaughter;" edge="1" parent="1" source="wL283nahEsRfDJyT6Ts5-499" target="wL283nahEsRfDJyT6Ts5-505">
          <mxGeometry relative="1" as="geometry" />
        </mxCell>
        <mxCell id="wL283nahEsRfDJyT6Ts5-499" value="commit 1" style="ellipse;whiteSpace=wrap;html=1;aspect=fixed;sketch=1;hachureGap=4;jiggle=2;curveFitting=1;fontFamily=Architects Daughter;fontSource=https%3A%2F%2Ffonts.googleapis.com%2Fcss%3Ffamily%3DArchitects%2BDaughter;fillColor=#f5f5f5;gradientColor=#b3b3b3;strokeColor=#666666;" vertex="1" parent="1">
          <mxGeometry x="215" y="1690" width="40" height="40" as="geometry" />
        </mxCell>
        <mxCell id="wL283nahEsRfDJyT6Ts5-502" style="rounded=0;sketch=1;hachureGap=4;jiggle=2;curveFitting=1;orthogonalLoop=1;jettySize=auto;html=1;entryX=0.889;entryY=0.714;entryDx=0;entryDy=0;entryPerimeter=0;fontFamily=Architects Daughter;fontSource=https%3A%2F%2Ffonts.googleapis.com%2Fcss%3Ffamily%3DArchitects%2BDaughter;" edge="1" parent="1" source="wL283nahEsRfDJyT6Ts5-499" target="wL283nahEsRfDJyT6Ts5-482">
          <mxGeometry relative="1" as="geometry" />
        </mxCell>
        <mxCell id="wL283nahEsRfDJyT6Ts5-503" value="" style="rounded=0;whiteSpace=wrap;html=1;sketch=1;hachureGap=4;jiggle=2;curveFitting=1;fontFamily=Architects Daughter;fontSource=https%3A%2F%2Ffonts.googleapis.com%2Fcss%3Ffamily%3DArchitects%2BDaughter;fillColor=#e6d0de;strokeColor=#996185;opacity=10;gradientColor=#d5739d;" vertex="1" parent="1">
          <mxGeometry x="50" y="1680" width="660" height="60" as="geometry" />
        </mxCell>
        <mxCell id="wL283nahEsRfDJyT6Ts5-504" value="commit 2" style="ellipse;whiteSpace=wrap;html=1;aspect=fixed;sketch=1;hachureGap=4;jiggle=2;curveFitting=1;fontFamily=Architects Daughter;fontSource=https%3A%2F%2Ffonts.googleapis.com%2Fcss%3Ffamily%3DArchitects%2BDaughter;fillColor=#f5f5f5;gradientColor=#b3b3b3;strokeColor=#666666;" vertex="1" parent="1">
          <mxGeometry x="275" y="1690" width="40" height="40" as="geometry" />
        </mxCell>
        <mxCell id="wL283nahEsRfDJyT6Ts5-505" value="commit 3" style="ellipse;whiteSpace=wrap;html=1;aspect=fixed;sketch=1;hachureGap=4;jiggle=2;curveFitting=1;fontFamily=Architects Daughter;fontSource=https%3A%2F%2Ffonts.googleapis.com%2Fcss%3Ffamily%3DArchitects%2BDaughter;fillColor=#f5f5f5;gradientColor=#b3b3b3;strokeColor=#666666;" vertex="1" parent="1">
          <mxGeometry x="340" y="1690" width="40" height="40" as="geometry" />
        </mxCell>
        <mxCell id="wL283nahEsRfDJyT6Ts5-508" value="commit 3" style="ellipse;whiteSpace=wrap;html=1;aspect=fixed;sketch=1;hachureGap=4;jiggle=2;curveFitting=1;fontFamily=Architects Daughter;fontSource=https%3A%2F%2Ffonts.googleapis.com%2Fcss%3Ffamily%3DArchitects%2BDaughter;fillColor=#f5f5f5;gradientColor=#b3b3b3;strokeColor=#666666;" vertex="1" parent="1">
          <mxGeometry x="425" y="1610" width="40" height="40" as="geometry" />
        </mxCell>
        <mxCell id="wL283nahEsRfDJyT6Ts5-510" style="rounded=0;sketch=1;hachureGap=4;jiggle=2;curveFitting=1;orthogonalLoop=1;jettySize=auto;html=1;entryX=0.159;entryY=0.741;entryDx=0;entryDy=0;entryPerimeter=0;fontFamily=Architects Daughter;fontSource=https%3A%2F%2Ffonts.googleapis.com%2Fcss%3Ffamily%3DArchitects%2BDaughter;" edge="1" parent="1" source="wL283nahEsRfDJyT6Ts5-505" target="wL283nahEsRfDJyT6Ts5-508">
          <mxGeometry relative="1" as="geometry" />
        </mxCell>
        <mxCell id="wL283nahEsRfDJyT6Ts5-512" value="phoepe" style="whiteSpace=wrap;html=1;aspect=fixed;sketch=1;hachureGap=4;jiggle=2;curveFitting=1;fontFamily=Architects Daughter;fontSource=https%3A%2F%2Ffonts.googleapis.com%2Fcss%3Ffamily%3DArchitects%2BDaughter;" vertex="1" parent="1">
          <mxGeometry x="75" y="1800" width="80" height="80" as="geometry" />
        </mxCell>
        <mxCell id="wL283nahEsRfDJyT6Ts5-513" value="mama maglione" style="whiteSpace=wrap;html=1;aspect=fixed;sketch=1;hachureGap=4;jiggle=2;curveFitting=1;fontFamily=Architects Daughter;fontSource=https%3A%2F%2Ffonts.googleapis.com%2Fcss%3Ffamily%3DArchitects%2BDaughter;" vertex="1" parent="1">
          <mxGeometry x="175" y="1800" width="80" height="80" as="geometry" />
        </mxCell>
        <mxCell id="wL283nahEsRfDJyT6Ts5-514" value="friends.txt" style="text;html=1;align=center;verticalAlign=middle;whiteSpace=wrap;rounded=0;fontFamily=Architects Daughter;fontSource=https%3A%2F%2Ffonts.googleapis.com%2Fcss%3Ffamily%3DArchitects%2BDaughter;" vertex="1" parent="1">
          <mxGeometry x="80" y="1880" width="60" height="30" as="geometry" />
        </mxCell>
        <mxCell id="wL283nahEsRfDJyT6Ts5-515" value="brooklyn99.txt" style="text;html=1;align=center;verticalAlign=middle;whiteSpace=wrap;rounded=0;fontFamily=Architects Daughter;fontSource=https%3A%2F%2Ffonts.googleapis.com%2Fcss%3Ffamily%3DArchitects%2BDaughter;" vertex="1" parent="1">
          <mxGeometry x="185" y="1890" width="60" height="30" as="geometry" />
        </mxCell>
        <mxCell id="wL283nahEsRfDJyT6Ts5-520" value="commit&lt;br&gt;!" style="ellipse;whiteSpace=wrap;html=1;aspect=fixed;sketch=1;hachureGap=4;jiggle=2;curveFitting=1;fontFamily=Architects Daughter;fontSource=https%3A%2F%2Ffonts.googleapis.com%2Fcss%3Ffamily%3DArchitects%2BDaughter;fillColor=#f8cecc;gradientColor=#ea6b66;strokeColor=#b85450;" vertex="1" parent="1">
          <mxGeometry x="75" y="2050" width="50" height="50" as="geometry" />
        </mxCell>
        <mxCell id="wL283nahEsRfDJyT6Ts5-523" value="" style="edgeStyle=orthogonalEdgeStyle;rounded=0;sketch=1;hachureGap=4;jiggle=2;curveFitting=1;orthogonalLoop=1;jettySize=auto;html=1;fontFamily=Architects Daughter;fontSource=https%3A%2F%2Ffonts.googleapis.com%2Fcss%3Ffamily%3DArchitects%2BDaughter;" edge="1" parent="1" source="wL283nahEsRfDJyT6Ts5-521" target="wL283nahEsRfDJyT6Ts5-520">
          <mxGeometry relative="1" as="geometry" />
        </mxCell>
        <mxCell id="wL283nahEsRfDJyT6Ts5-521" value="commit&lt;br&gt;2" style="ellipse;whiteSpace=wrap;html=1;aspect=fixed;sketch=1;hachureGap=4;jiggle=2;curveFitting=1;fontFamily=Architects Daughter;fontSource=https%3A%2F%2Ffonts.googleapis.com%2Fcss%3Ffamily%3DArchitects%2BDaughter;fillColor=#f8cecc;gradientColor=#ea6b66;strokeColor=#b85450;" vertex="1" parent="1">
          <mxGeometry x="190" y="2050" width="50" height="50" as="geometry" />
        </mxCell>
        <mxCell id="wL283nahEsRfDJyT6Ts5-524" value="master" style="triangle;whiteSpace=wrap;html=1;sketch=1;hachureGap=4;jiggle=2;curveFitting=1;fontFamily=Architects Daughter;fontSource=https%3A%2F%2Ffonts.googleapis.com%2Fcss%3Ffamily%3DArchitects%2BDaughter;rotation=90;fillColor=#d5e8d4;gradientColor=#97d077;strokeColor=#82b366;" vertex="1" parent="1">
          <mxGeometry x="182.5" y="2000" width="65" height="40" as="geometry" />
        </mxCell>
        <mxCell id="wL283nahEsRfDJyT6Ts5-526" value="HEAD" style="rounded=0;whiteSpace=wrap;html=1;sketch=1;hachureGap=4;jiggle=2;curveFitting=1;fontFamily=Architects Daughter;fontSource=https%3A%2F%2Ffonts.googleapis.com%2Fcss%3Ffamily%3DArchitects%2BDaughter;fillColor=#fff2cc;gradientColor=#ffd966;strokeColor=#d6b656;rotation=-45;" vertex="1" parent="1">
          <mxGeometry x="110" y="1980" width="60" height="20" as="geometry" />
        </mxCell>
        <mxCell id="wL283nahEsRfDJyT6Ts5-528" value="netflix" style="triangle;whiteSpace=wrap;html=1;sketch=1;hachureGap=4;jiggle=2;curveFitting=1;fontFamily=Architects Daughter;fontSource=https%3A%2F%2Ffonts.googleapis.com%2Fcss%3Ffamily%3DArchitects%2BDaughter;rotation=-91;fillColor=#d5e8d4;gradientColor=#97d077;strokeColor=#82b366;" vertex="1" parent="1">
          <mxGeometry x="185" y="2110" width="65" height="40" as="geometry" />
        </mxCell>
        <mxCell id="wL283nahEsRfDJyT6Ts5-529" value="git branch netflix" style="text;whiteSpace=wrap;fontFamily=Architects Daughter;fontSource=https%3A%2F%2Ffonts.googleapis.com%2Fcss%3Ffamily%3DArchitects%2BDaughter;" vertex="1" parent="1">
          <mxGeometry x="90" y="2130" width="130" height="40" as="geometry" />
        </mxCell>
        <mxCell id="wL283nahEsRfDJyT6Ts5-530" value="amazon" style="triangle;whiteSpace=wrap;html=1;sketch=1;hachureGap=4;jiggle=2;curveFitting=1;fontFamily=Architects Daughter;fontSource=https%3A%2F%2Ffonts.googleapis.com%2Fcss%3Ffamily%3DArchitects%2BDaughter;rotation=-90;fillColor=#d5e8d4;gradientColor=#97d077;strokeColor=#82b366;" vertex="1" parent="1">
          <mxGeometry x="440" y="2147.85" width="65" height="40" as="geometry" />
        </mxCell>
        <mxCell id="wL283nahEsRfDJyT6Ts5-533" style="rounded=0;sketch=1;hachureGap=4;jiggle=2;curveFitting=1;orthogonalLoop=1;jettySize=auto;html=1;entryX=1;entryY=0.5;entryDx=0;entryDy=0;fontFamily=Architects Daughter;fontSource=https%3A%2F%2Ffonts.googleapis.com%2Fcss%3Ffamily%3DArchitects%2BDaughter;" edge="1" parent="1" source="wL283nahEsRfDJyT6Ts5-532" target="wL283nahEsRfDJyT6Ts5-521">
          <mxGeometry relative="1" as="geometry" />
        </mxCell>
        <mxCell id="wL283nahEsRfDJyT6Ts5-538" value="M friends.txt" style="edgeLabel;html=1;align=center;verticalAlign=middle;resizable=0;points=[];sketch=1;hachureGap=4;jiggle=2;curveFitting=1;fontFamily=Architects Daughter;fontSource=https%3A%2F%2Ffonts.googleapis.com%2Fcss%3Ffamily%3DArchitects%2BDaughter;" vertex="1" connectable="0" parent="wL283nahEsRfDJyT6Ts5-533">
          <mxGeometry x="-0.2049" y="-2" relative="1" as="geometry">
            <mxPoint as="offset" />
          </mxGeometry>
        </mxCell>
        <mxCell id="wL283nahEsRfDJyT6Ts5-537" style="edgeStyle=orthogonalEdgeStyle;rounded=0;sketch=1;hachureGap=4;jiggle=2;curveFitting=1;orthogonalLoop=1;jettySize=auto;html=1;fontFamily=Architects Daughter;fontSource=https%3A%2F%2Ffonts.googleapis.com%2Fcss%3Ffamily%3DArchitects%2BDaughter;" edge="1" parent="1" source="wL283nahEsRfDJyT6Ts5-532" target="wL283nahEsRfDJyT6Ts5-536">
          <mxGeometry relative="1" as="geometry" />
        </mxCell>
        <mxCell id="wL283nahEsRfDJyT6Ts5-539" value="A find.txt" style="edgeLabel;html=1;align=center;verticalAlign=middle;resizable=0;points=[];sketch=1;hachureGap=4;jiggle=2;curveFitting=1;fontFamily=Architects Daughter;fontSource=https%3A%2F%2Ffonts.googleapis.com%2Fcss%3Ffamily%3DArchitects%2BDaughter;" vertex="1" connectable="0" parent="wL283nahEsRfDJyT6Ts5-537">
          <mxGeometry x="-0.3018" y="6" relative="1" as="geometry">
            <mxPoint x="4" y="21" as="offset" />
          </mxGeometry>
        </mxCell>
        <mxCell id="wL283nahEsRfDJyT6Ts5-532" value="commit&lt;br&gt;3" style="ellipse;whiteSpace=wrap;html=1;aspect=fixed;sketch=1;hachureGap=4;jiggle=2;curveFitting=1;fontFamily=Architects Daughter;fontSource=https%3A%2F%2Ffonts.googleapis.com%2Fcss%3Ffamily%3DArchitects%2BDaughter;fillColor=#f8cecc;gradientColor=#ea6b66;strokeColor=#b85450;" vertex="1" parent="1">
          <mxGeometry x="337.5" y="2077.85" width="50" height="50" as="geometry" />
        </mxCell>
        <mxCell id="wL283nahEsRfDJyT6Ts5-536" value="commit&lt;br&gt;4" style="ellipse;whiteSpace=wrap;html=1;aspect=fixed;sketch=1;hachureGap=4;jiggle=2;curveFitting=1;fontFamily=Architects Daughter;fontSource=https%3A%2F%2Ffonts.googleapis.com%2Fcss%3Ffamily%3DArchitects%2BDaughter;fillColor=#f8cecc;gradientColor=#ea6b66;strokeColor=#b85450;" vertex="1" parent="1">
          <mxGeometry x="447.5" y="2077.85" width="50" height="50" as="geometry" />
        </mxCell>
        <mxCell id="wL283nahEsRfDJyT6Ts5-540" value="mtv" style="triangle;whiteSpace=wrap;html=1;sketch=1;hachureGap=4;jiggle=2;curveFitting=1;fontFamily=Architects Daughter;fontSource=https%3A%2F%2Ffonts.googleapis.com%2Fcss%3Ffamily%3DArchitects%2BDaughter;rotation=50;fillColor=#d5e8d4;gradientColor=#97d077;strokeColor=#82b366;" vertex="1" parent="1">
          <mxGeometry x="140" y="2010" width="65" height="40" as="geometry" />
        </mxCell>
        <mxCell id="wL283nahEsRfDJyT6Ts5-542" value="merging" style="rounded=0;whiteSpace=wrap;html=1;sketch=1;hachureGap=4;jiggle=2;curveFitting=1;fontFamily=Architects Daughter;fontSource=https%3A%2F%2Ffonts.googleapis.com%2Fcss%3Ffamily%3DArchitects%2BDaughter;fillColor=#b0e3e6;strokeColor=#0e8088;" vertex="1" parent="1">
          <mxGeometry y="2240" width="850" height="20" as="geometry" />
        </mxCell>
        <mxCell id="wL283nahEsRfDJyT6Ts5-545" value="" style="edgeStyle=orthogonalEdgeStyle;rounded=0;sketch=1;hachureGap=4;jiggle=2;curveFitting=1;orthogonalLoop=1;jettySize=auto;html=1;fontFamily=Architects Daughter;fontSource=https%3A%2F%2Ffonts.googleapis.com%2Fcss%3Ffamily%3DArchitects%2BDaughter;" edge="1" parent="1" source="wL283nahEsRfDJyT6Ts5-543" target="wL283nahEsRfDJyT6Ts5-544">
          <mxGeometry relative="1" as="geometry" />
        </mxCell>
        <mxCell id="wL283nahEsRfDJyT6Ts5-543" value="c 1" style="ellipse;whiteSpace=wrap;html=1;aspect=fixed;sketch=1;hachureGap=4;jiggle=2;curveFitting=1;fontFamily=Architects Daughter;fontSource=https%3A%2F%2Ffonts.googleapis.com%2Fcss%3Ffamily%3DArchitects%2BDaughter;fillColor=#f8cecc;strokeColor=#b85450;gradientColor=#ea6b66;" vertex="1" parent="1">
          <mxGeometry x="90" y="2390" width="40" height="40" as="geometry" />
        </mxCell>
        <mxCell id="wL283nahEsRfDJyT6Ts5-547" value="" style="rounded=0;sketch=1;hachureGap=4;jiggle=2;curveFitting=1;orthogonalLoop=1;jettySize=auto;html=1;fontFamily=Architects Daughter;fontSource=https%3A%2F%2Ffonts.googleapis.com%2Fcss%3Ffamily%3DArchitects%2BDaughter;" edge="1" parent="1" source="wL283nahEsRfDJyT6Ts5-544" target="wL283nahEsRfDJyT6Ts5-546">
          <mxGeometry relative="1" as="geometry" />
        </mxCell>
        <mxCell id="wL283nahEsRfDJyT6Ts5-544" value="c 2" style="ellipse;whiteSpace=wrap;html=1;aspect=fixed;sketch=1;hachureGap=4;jiggle=2;curveFitting=1;fontFamily=Architects Daughter;fontSource=https%3A%2F%2Ffonts.googleapis.com%2Fcss%3Ffamily%3DArchitects%2BDaughter;fillColor=#f8cecc;strokeColor=#b85450;gradientColor=#ea6b66;" vertex="1" parent="1">
          <mxGeometry x="205" y="2390" width="40" height="40" as="geometry" />
        </mxCell>
        <mxCell id="wL283nahEsRfDJyT6Ts5-549" value="" style="edgeStyle=orthogonalEdgeStyle;rounded=0;sketch=1;hachureGap=4;jiggle=2;curveFitting=1;orthogonalLoop=1;jettySize=auto;html=1;fontFamily=Architects Daughter;fontSource=https%3A%2F%2Ffonts.googleapis.com%2Fcss%3Ffamily%3DArchitects%2BDaughter;" edge="1" parent="1" source="wL283nahEsRfDJyT6Ts5-546" target="wL283nahEsRfDJyT6Ts5-548">
          <mxGeometry relative="1" as="geometry" />
        </mxCell>
        <mxCell id="wL283nahEsRfDJyT6Ts5-546" value="c 3" style="ellipse;whiteSpace=wrap;html=1;aspect=fixed;sketch=1;hachureGap=4;jiggle=2;curveFitting=1;fontFamily=Architects Daughter;fontSource=https%3A%2F%2Ffonts.googleapis.com%2Fcss%3Ffamily%3DArchitects%2BDaughter;fillColor=#f8cecc;gradientColor=#ea6b66;strokeColor=#b85450;" vertex="1" parent="1">
          <mxGeometry x="310" y="2470" width="40" height="40" as="geometry" />
        </mxCell>
        <mxCell id="wL283nahEsRfDJyT6Ts5-551" value="" style="edgeStyle=orthogonalEdgeStyle;rounded=0;sketch=1;hachureGap=4;jiggle=2;curveFitting=1;orthogonalLoop=1;jettySize=auto;html=1;fontFamily=Architects Daughter;fontSource=https%3A%2F%2Ffonts.googleapis.com%2Fcss%3Ffamily%3DArchitects%2BDaughter;" edge="1" parent="1" source="wL283nahEsRfDJyT6Ts5-548" target="wL283nahEsRfDJyT6Ts5-550">
          <mxGeometry relative="1" as="geometry" />
        </mxCell>
        <mxCell id="wL283nahEsRfDJyT6Ts5-548" value="c 4" style="ellipse;whiteSpace=wrap;html=1;aspect=fixed;sketch=1;hachureGap=4;jiggle=2;curveFitting=1;fontFamily=Architects Daughter;fontSource=https%3A%2F%2Ffonts.googleapis.com%2Fcss%3Ffamily%3DArchitects%2BDaughter;fillColor=#f8cecc;gradientColor=#ea6b66;strokeColor=#b85450;" vertex="1" parent="1">
          <mxGeometry x="430" y="2470" width="40" height="40" as="geometry" />
        </mxCell>
        <mxCell id="wL283nahEsRfDJyT6Ts5-550" value="c 5" style="ellipse;whiteSpace=wrap;html=1;aspect=fixed;sketch=1;hachureGap=4;jiggle=2;curveFitting=1;fontFamily=Architects Daughter;fontSource=https%3A%2F%2Ffonts.googleapis.com%2Fcss%3Ffamily%3DArchitects%2BDaughter;fillColor=#f8cecc;gradientColor=#ea6b66;strokeColor=#b85450;" vertex="1" parent="1">
          <mxGeometry x="527.5" y="2470" width="40" height="40" as="geometry" />
        </mxCell>
        <mxCell id="wL283nahEsRfDJyT6Ts5-556" value="" style="edgeStyle=orthogonalEdgeStyle;rounded=0;sketch=1;hachureGap=4;jiggle=2;curveFitting=1;orthogonalLoop=1;jettySize=auto;html=1;fontFamily=Architects Daughter;fontSource=https%3A%2F%2Ffonts.googleapis.com%2Fcss%3Ffamily%3DArchitects%2BDaughter;entryX=0.5;entryY=0;entryDx=0;entryDy=0;" edge="1" parent="1" source="wL283nahEsRfDJyT6Ts5-553" target="wL283nahEsRfDJyT6Ts5-550">
          <mxGeometry relative="1" as="geometry" />
        </mxCell>
        <mxCell id="wL283nahEsRfDJyT6Ts5-553" value="master" style="rounded=0;whiteSpace=wrap;html=1;sketch=1;hachureGap=4;jiggle=2;curveFitting=1;fontFamily=Architects Daughter;fontSource=https%3A%2F%2Ffonts.googleapis.com%2Fcss%3Ffamily%3DArchitects%2BDaughter;fillColor=#dae8fc;gradientColor=#7ea6e0;strokeColor=#6c8ebf;" vertex="1" parent="1">
          <mxGeometry x="522.5" y="2420" width="50" height="20" as="geometry" />
        </mxCell>
        <mxCell id="wL283nahEsRfDJyT6Ts5-555" value="" style="edgeStyle=orthogonalEdgeStyle;rounded=0;sketch=1;hachureGap=4;jiggle=2;curveFitting=1;orthogonalLoop=1;jettySize=auto;html=1;fontFamily=Architects Daughter;fontSource=https%3A%2F%2Ffonts.googleapis.com%2Fcss%3Ffamily%3DArchitects%2BDaughter;" edge="1" parent="1" source="wL283nahEsRfDJyT6Ts5-554" target="wL283nahEsRfDJyT6Ts5-553">
          <mxGeometry relative="1" as="geometry" />
        </mxCell>
        <mxCell id="wL283nahEsRfDJyT6Ts5-554" value="HEAD" style="rounded=0;whiteSpace=wrap;html=1;sketch=1;hachureGap=4;jiggle=2;curveFitting=1;fontFamily=Architects Daughter;fontSource=https%3A%2F%2Ffonts.googleapis.com%2Fcss%3Ffamily%3DArchitects%2BDaughter;fillColor=#d5e8d4;gradientColor=#97d077;strokeColor=#82b366;" vertex="1" parent="1">
          <mxGeometry x="522.5" y="2350" width="50" height="20" as="geometry" />
        </mxCell>
        <mxCell id="wL283nahEsRfDJyT6Ts5-561" style="edgeStyle=orthogonalEdgeStyle;rounded=0;sketch=1;hachureGap=4;jiggle=2;curveFitting=1;orthogonalLoop=1;jettySize=auto;html=1;fontFamily=Architects Daughter;fontSource=https%3A%2F%2Ffonts.googleapis.com%2Fcss%3Ffamily%3DArchitects%2BDaughter;" edge="1" parent="1" source="wL283nahEsRfDJyT6Ts5-560" target="wL283nahEsRfDJyT6Ts5-550">
          <mxGeometry relative="1" as="geometry" />
        </mxCell>
        <mxCell id="wL283nahEsRfDJyT6Ts5-560" value="change bg color" style="rounded=0;whiteSpace=wrap;html=1;sketch=1;hachureGap=4;jiggle=2;curveFitting=1;fontFamily=Architects Daughter;fontSource=https%3A%2F%2Ffonts.googleapis.com%2Fcss%3Ffamily%3DArchitects%2BDaughter;fillColor=#dae8fc;gradientColor=#7ea6e0;strokeColor=#6c8ebf;" vertex="1" parent="1">
          <mxGeometry x="492.5" y="2540" width="110" height="20" as="geometry" />
        </mxCell>
        <mxCell id="wL283nahEsRfDJyT6Ts5-562" value="fast forward merge" style="rounded=0;whiteSpace=wrap;html=1;sketch=1;hachureGap=4;jiggle=2;curveFitting=1;fontFamily=Architects Daughter;fontSource=https%3A%2F%2Ffonts.googleapis.com%2Fcss%3Ffamily%3DArchitects%2BDaughter;fillColor=#dae8fc;gradientColor=#7ea6e0;strokeColor=#6c8ebf;" vertex="1" parent="1">
          <mxGeometry x="320" y="2270" width="150" height="20" as="geometry" />
        </mxCell>
        <mxCell id="wL283nahEsRfDJyT6Ts5-569" value="" style="rounded=0;whiteSpace=wrap;html=1;sketch=1;hachureGap=4;jiggle=2;curveFitting=1;fontFamily=Architects Daughter;fontSource=https%3A%2F%2Ffonts.googleapis.com%2Fcss%3Ffamily%3DArchitects%2BDaughter;" vertex="1" parent="1">
          <mxGeometry x="40" y="2720" width="165" height="140" as="geometry" />
        </mxCell>
        <mxCell id="wL283nahEsRfDJyT6Ts5-571" value="" style="rounded=0;whiteSpace=wrap;html=1;sketch=1;hachureGap=4;jiggle=2;curveFitting=1;fontFamily=Architects Daughter;fontSource=https%3A%2F%2Ffonts.googleapis.com%2Fcss%3Ffamily%3DArchitects%2BDaughter;fillColor=#fff2cc;gradientColor=#ffd966;strokeColor=#d6b656;" vertex="1" parent="1">
          <mxGeometry x="100" y="2770" width="120" height="60" as="geometry" />
        </mxCell>
        <mxCell id="wL283nahEsRfDJyT6Ts5-572" value="" style="rounded=0;whiteSpace=wrap;html=1;sketch=1;hachureGap=4;jiggle=2;curveFitting=1;fontFamily=Architects Daughter;fontSource=https%3A%2F%2Ffonts.googleapis.com%2Fcss%3Ffamily%3DArchitects%2BDaughter;fillColor=#fff2cc;gradientColor=#ffd966;strokeColor=#d6b656;" vertex="1" parent="1">
          <mxGeometry x="112.5" y="2750" width="120" height="60" as="geometry" />
        </mxCell>
        <mxCell id="wL283nahEsRfDJyT6Ts5-573" value="" style="rounded=0;whiteSpace=wrap;html=1;sketch=1;hachureGap=4;jiggle=2;curveFitting=1;fontFamily=Architects Daughter;fontSource=https%3A%2F%2Ffonts.googleapis.com%2Fcss%3Ffamily%3DArchitects%2BDaughter;fillColor=#fff2cc;gradientColor=#ffd966;strokeColor=#d6b656;" vertex="1" parent="1">
          <mxGeometry x="130" y="2730" width="120" height="60" as="geometry" />
        </mxCell>
        <mxCell id="wL283nahEsRfDJyT6Ts5-574" value="" style="rounded=0;whiteSpace=wrap;html=1;sketch=1;hachureGap=4;jiggle=2;curveFitting=1;fontFamily=Architects Daughter;fontSource=https%3A%2F%2Ffonts.googleapis.com%2Fcss%3Ffamily%3DArchitects%2BDaughter;fillColor=#dae8fc;gradientColor=#7ea6e0;strokeColor=#6c8ebf;" vertex="1" parent="1">
          <mxGeometry x="50" y="2760" width="40" height="60" as="geometry" />
        </mxCell>
        <mxCell id="wL283nahEsRfDJyT6Ts5-575" value="" style="edgeStyle=orthogonalEdgeStyle;rounded=0;sketch=1;hachureGap=4;jiggle=2;curveFitting=1;orthogonalLoop=1;jettySize=auto;html=1;fontFamily=Architects Daughter;fontSource=https%3A%2F%2Ffonts.googleapis.com%2Fcss%3Ffamily%3DArchitects%2BDaughter;" edge="1" parent="1" source="wL283nahEsRfDJyT6Ts5-576" target="wL283nahEsRfDJyT6Ts5-578">
          <mxGeometry relative="1" as="geometry" />
        </mxCell>
        <mxCell id="wL283nahEsRfDJyT6Ts5-576" value="c 1" style="ellipse;whiteSpace=wrap;html=1;aspect=fixed;sketch=1;hachureGap=4;jiggle=2;curveFitting=1;fontFamily=Architects Daughter;fontSource=https%3A%2F%2Ffonts.googleapis.com%2Fcss%3Ffamily%3DArchitects%2BDaughter;fillColor=#f8cecc;strokeColor=#b85450;gradientColor=#ea6b66;" vertex="1" parent="1">
          <mxGeometry x="77.5" y="3040" width="40" height="40" as="geometry" />
        </mxCell>
        <mxCell id="wL283nahEsRfDJyT6Ts5-577" value="" style="rounded=0;sketch=1;hachureGap=4;jiggle=2;curveFitting=1;orthogonalLoop=1;jettySize=auto;html=1;fontFamily=Architects Daughter;fontSource=https%3A%2F%2Ffonts.googleapis.com%2Fcss%3Ffamily%3DArchitects%2BDaughter;" edge="1" parent="1" source="wL283nahEsRfDJyT6Ts5-578" target="wL283nahEsRfDJyT6Ts5-580">
          <mxGeometry relative="1" as="geometry" />
        </mxCell>
        <mxCell id="wL283nahEsRfDJyT6Ts5-591" style="edgeStyle=orthogonalEdgeStyle;rounded=0;sketch=1;hachureGap=4;jiggle=2;curveFitting=1;orthogonalLoop=1;jettySize=auto;html=1;entryX=0;entryY=0.5;entryDx=0;entryDy=0;fontFamily=Architects Daughter;fontSource=https%3A%2F%2Ffonts.googleapis.com%2Fcss%3Ffamily%3DArchitects%2BDaughter;" edge="1" parent="1" source="wL283nahEsRfDJyT6Ts5-578" target="wL283nahEsRfDJyT6Ts5-590">
          <mxGeometry relative="1" as="geometry" />
        </mxCell>
        <mxCell id="wL283nahEsRfDJyT6Ts5-578" value="c 2" style="ellipse;whiteSpace=wrap;html=1;aspect=fixed;sketch=1;hachureGap=4;jiggle=2;curveFitting=1;fontFamily=Architects Daughter;fontSource=https%3A%2F%2Ffonts.googleapis.com%2Fcss%3Ffamily%3DArchitects%2BDaughter;fillColor=#f8cecc;strokeColor=#b85450;gradientColor=#ea6b66;" vertex="1" parent="1">
          <mxGeometry x="192.5" y="3040" width="40" height="40" as="geometry" />
        </mxCell>
        <mxCell id="wL283nahEsRfDJyT6Ts5-579" value="" style="edgeStyle=orthogonalEdgeStyle;rounded=0;sketch=1;hachureGap=4;jiggle=2;curveFitting=1;orthogonalLoop=1;jettySize=auto;html=1;fontFamily=Architects Daughter;fontSource=https%3A%2F%2Ffonts.googleapis.com%2Fcss%3Ffamily%3DArchitects%2BDaughter;" edge="1" parent="1" source="wL283nahEsRfDJyT6Ts5-580" target="wL283nahEsRfDJyT6Ts5-582">
          <mxGeometry relative="1" as="geometry" />
        </mxCell>
        <mxCell id="wL283nahEsRfDJyT6Ts5-580" value="c 3" style="ellipse;whiteSpace=wrap;html=1;aspect=fixed;sketch=1;hachureGap=4;jiggle=2;curveFitting=1;fontFamily=Architects Daughter;fontSource=https%3A%2F%2Ffonts.googleapis.com%2Fcss%3Ffamily%3DArchitects%2BDaughter;fillColor=#f8cecc;gradientColor=#ea6b66;strokeColor=#b85450;" vertex="1" parent="1">
          <mxGeometry x="297.5" y="3120" width="40" height="40" as="geometry" />
        </mxCell>
        <mxCell id="wL283nahEsRfDJyT6Ts5-581" value="" style="edgeStyle=orthogonalEdgeStyle;rounded=0;sketch=1;hachureGap=4;jiggle=2;curveFitting=1;orthogonalLoop=1;jettySize=auto;html=1;fontFamily=Architects Daughter;fontSource=https%3A%2F%2Ffonts.googleapis.com%2Fcss%3Ffamily%3DArchitects%2BDaughter;" edge="1" parent="1" source="wL283nahEsRfDJyT6Ts5-582" target="wL283nahEsRfDJyT6Ts5-583">
          <mxGeometry relative="1" as="geometry" />
        </mxCell>
        <mxCell id="wL283nahEsRfDJyT6Ts5-582" value="c 4" style="ellipse;whiteSpace=wrap;html=1;aspect=fixed;sketch=1;hachureGap=4;jiggle=2;curveFitting=1;fontFamily=Architects Daughter;fontSource=https%3A%2F%2Ffonts.googleapis.com%2Fcss%3Ffamily%3DArchitects%2BDaughter;fillColor=#f8cecc;gradientColor=#ea6b66;strokeColor=#b85450;" vertex="1" parent="1">
          <mxGeometry x="417.5" y="3120" width="40" height="40" as="geometry" />
        </mxCell>
        <mxCell id="wL283nahEsRfDJyT6Ts5-597" style="edgeStyle=orthogonalEdgeStyle;rounded=0;sketch=1;hachureGap=4;jiggle=2;curveFitting=1;orthogonalLoop=1;jettySize=auto;html=1;fontFamily=Architects Daughter;fontSource=https%3A%2F%2Ffonts.googleapis.com%2Fcss%3Ffamily%3DArchitects%2BDaughter;" edge="1" parent="1" source="wL283nahEsRfDJyT6Ts5-583" target="wL283nahEsRfDJyT6Ts5-596">
          <mxGeometry relative="1" as="geometry" />
        </mxCell>
        <mxCell id="wL283nahEsRfDJyT6Ts5-583" value="c 5" style="ellipse;whiteSpace=wrap;html=1;aspect=fixed;sketch=1;hachureGap=4;jiggle=2;curveFitting=1;fontFamily=Architects Daughter;fontSource=https%3A%2F%2Ffonts.googleapis.com%2Fcss%3Ffamily%3DArchitects%2BDaughter;fillColor=#f8cecc;gradientColor=#ea6b66;strokeColor=#b85450;" vertex="1" parent="1">
          <mxGeometry x="520" y="3125" width="35" height="35" as="geometry" />
        </mxCell>
        <mxCell id="wL283nahEsRfDJyT6Ts5-595" value="" style="edgeStyle=orthogonalEdgeStyle;rounded=0;sketch=1;hachureGap=4;jiggle=2;curveFitting=1;orthogonalLoop=1;jettySize=auto;html=1;fontFamily=Architects Daughter;fontSource=https%3A%2F%2Ffonts.googleapis.com%2Fcss%3Ffamily%3DArchitects%2BDaughter;" edge="1" parent="1" source="wL283nahEsRfDJyT6Ts5-585" target="wL283nahEsRfDJyT6Ts5-590">
          <mxGeometry relative="1" as="geometry" />
        </mxCell>
        <mxCell id="wL283nahEsRfDJyT6Ts5-585" value="master" style="rounded=0;whiteSpace=wrap;html=1;sketch=1;hachureGap=4;jiggle=2;curveFitting=1;fontFamily=Architects Daughter;fontSource=https%3A%2F%2Ffonts.googleapis.com%2Fcss%3Ffamily%3DArchitects%2BDaughter;fillColor=#dae8fc;gradientColor=#7ea6e0;strokeColor=#6c8ebf;" vertex="1" parent="1">
          <mxGeometry x="580" y="2990" width="50" height="20" as="geometry" />
        </mxCell>
        <mxCell id="wL283nahEsRfDJyT6Ts5-586" value="" style="edgeStyle=orthogonalEdgeStyle;rounded=0;sketch=1;hachureGap=4;jiggle=2;curveFitting=1;orthogonalLoop=1;jettySize=auto;html=1;fontFamily=Architects Daughter;fontSource=https%3A%2F%2Ffonts.googleapis.com%2Fcss%3Ffamily%3DArchitects%2BDaughter;" edge="1" parent="1" source="wL283nahEsRfDJyT6Ts5-587" target="wL283nahEsRfDJyT6Ts5-585">
          <mxGeometry relative="1" as="geometry" />
        </mxCell>
        <mxCell id="wL283nahEsRfDJyT6Ts5-587" value="HEAD" style="rounded=0;whiteSpace=wrap;html=1;sketch=1;hachureGap=4;jiggle=2;curveFitting=1;fontFamily=Architects Daughter;fontSource=https%3A%2F%2Ffonts.googleapis.com%2Fcss%3Ffamily%3DArchitects%2BDaughter;fillColor=#d5e8d4;gradientColor=#97d077;strokeColor=#82b366;" vertex="1" parent="1">
          <mxGeometry x="580" y="2920" width="50" height="20" as="geometry" />
        </mxCell>
        <mxCell id="wL283nahEsRfDJyT6Ts5-588" style="edgeStyle=orthogonalEdgeStyle;rounded=0;sketch=1;hachureGap=4;jiggle=2;curveFitting=1;orthogonalLoop=1;jettySize=auto;html=1;fontFamily=Architects Daughter;fontSource=https%3A%2F%2Ffonts.googleapis.com%2Fcss%3Ffamily%3DArchitects%2BDaughter;" edge="1" parent="1" source="wL283nahEsRfDJyT6Ts5-589" target="wL283nahEsRfDJyT6Ts5-583">
          <mxGeometry relative="1" as="geometry" />
        </mxCell>
        <mxCell id="wL283nahEsRfDJyT6Ts5-589" value="change bg color" style="rounded=0;whiteSpace=wrap;html=1;sketch=1;hachureGap=4;jiggle=2;curveFitting=1;fontFamily=Architects Daughter;fontSource=https%3A%2F%2Ffonts.googleapis.com%2Fcss%3Ffamily%3DArchitects%2BDaughter;fillColor=#dae8fc;gradientColor=#7ea6e0;strokeColor=#6c8ebf;" vertex="1" parent="1">
          <mxGeometry x="480" y="3190" width="110" height="20" as="geometry" />
        </mxCell>
        <mxCell id="wL283nahEsRfDJyT6Ts5-598" style="edgeStyle=orthogonalEdgeStyle;rounded=0;sketch=1;hachureGap=4;jiggle=2;curveFitting=1;orthogonalLoop=1;jettySize=auto;html=1;fontFamily=Architects Daughter;fontSource=https%3A%2F%2Ffonts.googleapis.com%2Fcss%3Ffamily%3DArchitects%2BDaughter;" edge="1" parent="1" source="wL283nahEsRfDJyT6Ts5-590" target="wL283nahEsRfDJyT6Ts5-596">
          <mxGeometry relative="1" as="geometry" />
        </mxCell>
        <mxCell id="wL283nahEsRfDJyT6Ts5-590" value="c 6" style="ellipse;whiteSpace=wrap;html=1;aspect=fixed;sketch=1;hachureGap=4;jiggle=2;curveFitting=1;fontFamily=Architects Daughter;fontSource=https%3A%2F%2Ffonts.googleapis.com%2Fcss%3Ffamily%3DArchitects%2BDaughter;fillColor=#f8cecc;strokeColor=#b85450;gradientColor=#ea6b66;" vertex="1" parent="1">
          <mxGeometry x="585" y="3040" width="40" height="40" as="geometry" />
        </mxCell>
        <mxCell id="wL283nahEsRfDJyT6Ts5-596" value="c 6" style="ellipse;whiteSpace=wrap;html=1;aspect=fixed;sketch=1;hachureGap=4;jiggle=2;curveFitting=1;fontFamily=Architects Daughter;fontSource=https%3A%2F%2Ffonts.googleapis.com%2Fcss%3Ffamily%3DArchitects%2BDaughter;fillColor=#f8cecc;strokeColor=#b85450;gradientColor=#ea6b66;" vertex="1" parent="1">
          <mxGeometry x="670" y="3040" width="40" height="40" as="geometry" />
        </mxCell>
        <mxCell id="wL283nahEsRfDJyT6Ts5-599" value="" style="edgeStyle=orthogonalEdgeStyle;rounded=0;sketch=1;hachureGap=4;jiggle=2;curveFitting=1;orthogonalLoop=1;jettySize=auto;html=1;fontFamily=Architects Daughter;fontSource=https%3A%2F%2Ffonts.googleapis.com%2Fcss%3Ffamily%3DArchitects%2BDaughter;" edge="1" parent="1" source="wL283nahEsRfDJyT6Ts5-600" target="wL283nahEsRfDJyT6Ts5-603">
          <mxGeometry relative="1" as="geometry" />
        </mxCell>
        <mxCell id="wL283nahEsRfDJyT6Ts5-600" value="c 1" style="ellipse;whiteSpace=wrap;html=1;aspect=fixed;sketch=1;hachureGap=4;jiggle=2;curveFitting=1;fontFamily=Architects Daughter;fontSource=https%3A%2F%2Ffonts.googleapis.com%2Fcss%3Ffamily%3DArchitects%2BDaughter;fillColor=#f8cecc;strokeColor=#b85450;gradientColor=#ea6b66;" vertex="1" parent="1">
          <mxGeometry x="43.75" y="3500" width="40" height="40" as="geometry" />
        </mxCell>
        <mxCell id="wL283nahEsRfDJyT6Ts5-601" value="" style="rounded=0;sketch=1;hachureGap=4;jiggle=2;curveFitting=1;orthogonalLoop=1;jettySize=auto;html=1;fontFamily=Architects Daughter;fontSource=https%3A%2F%2Ffonts.googleapis.com%2Fcss%3Ffamily%3DArchitects%2BDaughter;" edge="1" parent="1" source="wL283nahEsRfDJyT6Ts5-603" target="wL283nahEsRfDJyT6Ts5-605">
          <mxGeometry relative="1" as="geometry" />
        </mxCell>
        <mxCell id="wL283nahEsRfDJyT6Ts5-621" style="rounded=0;sketch=1;hachureGap=4;jiggle=2;curveFitting=1;orthogonalLoop=1;jettySize=auto;html=1;fontFamily=Architects Daughter;fontSource=https%3A%2F%2Ffonts.googleapis.com%2Fcss%3Ffamily%3DArchitects%2BDaughter;" edge="1" parent="1" source="wL283nahEsRfDJyT6Ts5-603" target="wL283nahEsRfDJyT6Ts5-607">
          <mxGeometry relative="1" as="geometry" />
        </mxCell>
        <mxCell id="wL283nahEsRfDJyT6Ts5-603" value="11" style="ellipse;whiteSpace=wrap;html=1;aspect=fixed;sketch=1;hachureGap=4;jiggle=2;curveFitting=1;fontFamily=Architects Daughter;fontSource=https%3A%2F%2Ffonts.googleapis.com%2Fcss%3Ffamily%3DArchitects%2BDaughter;fillColor=#f8cecc;strokeColor=#b85450;gradientColor=#ea6b66;" vertex="1" parent="1">
          <mxGeometry x="158.75" y="3500" width="40" height="40" as="geometry" />
        </mxCell>
        <mxCell id="wL283nahEsRfDJyT6Ts5-605" value="12" style="ellipse;whiteSpace=wrap;html=1;aspect=fixed;sketch=1;hachureGap=4;jiggle=2;curveFitting=1;fontFamily=Architects Daughter;fontSource=https%3A%2F%2Ffonts.googleapis.com%2Fcss%3Ffamily%3DArchitects%2BDaughter;fillColor=#f8cecc;gradientColor=#ea6b66;strokeColor=#b85450;" vertex="1" parent="1">
          <mxGeometry x="263.75" y="3580" width="40" height="40" as="geometry" />
        </mxCell>
        <mxCell id="wL283nahEsRfDJyT6Ts5-622" style="edgeStyle=orthogonalEdgeStyle;rounded=0;sketch=1;hachureGap=4;jiggle=2;curveFitting=1;orthogonalLoop=1;jettySize=auto;html=1;fontFamily=Architects Daughter;fontSource=https%3A%2F%2Ffonts.googleapis.com%2Fcss%3Ffamily%3DArchitects%2BDaughter;" edge="1" parent="1" source="wL283nahEsRfDJyT6Ts5-607">
          <mxGeometry relative="1" as="geometry">
            <mxPoint x="390" y="3520" as="targetPoint" />
          </mxGeometry>
        </mxCell>
        <mxCell id="wL283nahEsRfDJyT6Ts5-607" value="13" style="ellipse;whiteSpace=wrap;html=1;aspect=fixed;sketch=1;hachureGap=4;jiggle=2;curveFitting=1;fontFamily=Architects Daughter;fontSource=https%3A%2F%2Ffonts.googleapis.com%2Fcss%3Ffamily%3DArchitects%2BDaughter;fillColor=#f8cecc;gradientColor=#ea6b66;strokeColor=#b85450;" vertex="1" parent="1">
          <mxGeometry x="270" y="3500" width="40" height="40" as="geometry" />
        </mxCell>
        <mxCell id="wL283nahEsRfDJyT6Ts5-610" value="" style="edgeStyle=orthogonalEdgeStyle;rounded=0;sketch=1;hachureGap=4;jiggle=2;curveFitting=1;orthogonalLoop=1;jettySize=auto;html=1;fontFamily=Architects Daughter;fontSource=https%3A%2F%2Ffonts.googleapis.com%2Fcss%3Ffamily%3DArchitects%2BDaughter;entryX=0.5;entryY=0;entryDx=0;entryDy=0;" edge="1" parent="1" source="wL283nahEsRfDJyT6Ts5-611" target="wL283nahEsRfDJyT6Ts5-607">
          <mxGeometry relative="1" as="geometry">
            <mxPoint x="290" y="3480" as="targetPoint" />
          </mxGeometry>
        </mxCell>
        <mxCell id="wL283nahEsRfDJyT6Ts5-611" value="master" style="rounded=0;whiteSpace=wrap;html=1;sketch=1;hachureGap=4;jiggle=2;curveFitting=1;fontFamily=Architects Daughter;fontSource=https%3A%2F%2Ffonts.googleapis.com%2Fcss%3Ffamily%3DArchitects%2BDaughter;fillColor=#dae8fc;gradientColor=#7ea6e0;strokeColor=#6c8ebf;" vertex="1" parent="1">
          <mxGeometry x="265" y="3430" width="50" height="20" as="geometry" />
        </mxCell>
        <mxCell id="wL283nahEsRfDJyT6Ts5-612" value="" style="edgeStyle=orthogonalEdgeStyle;rounded=0;sketch=1;hachureGap=4;jiggle=2;curveFitting=1;orthogonalLoop=1;jettySize=auto;html=1;fontFamily=Architects Daughter;fontSource=https%3A%2F%2Ffonts.googleapis.com%2Fcss%3Ffamily%3DArchitects%2BDaughter;" edge="1" parent="1" source="wL283nahEsRfDJyT6Ts5-613" target="wL283nahEsRfDJyT6Ts5-611">
          <mxGeometry relative="1" as="geometry" />
        </mxCell>
        <mxCell id="wL283nahEsRfDJyT6Ts5-613" value="HEAD" style="rounded=0;whiteSpace=wrap;html=1;sketch=1;hachureGap=4;jiggle=2;curveFitting=1;fontFamily=Architects Daughter;fontSource=https%3A%2F%2Ffonts.googleapis.com%2Fcss%3Ffamily%3DArchitects%2BDaughter;fillColor=#d5e8d4;gradientColor=#97d077;strokeColor=#82b366;" vertex="1" parent="1">
          <mxGeometry x="265" y="3360" width="50" height="20" as="geometry" />
        </mxCell>
        <mxCell id="wL283nahEsRfDJyT6Ts5-614" style="edgeStyle=orthogonalEdgeStyle;rounded=0;sketch=1;hachureGap=4;jiggle=2;curveFitting=1;orthogonalLoop=1;jettySize=auto;html=1;fontFamily=Architects Daughter;fontSource=https%3A%2F%2Ffonts.googleapis.com%2Fcss%3Ffamily%3DArchitects%2BDaughter;" edge="1" parent="1" source="wL283nahEsRfDJyT6Ts5-615">
          <mxGeometry relative="1" as="geometry">
            <mxPoint x="290" y="3620" as="targetPoint" />
          </mxGeometry>
        </mxCell>
        <mxCell id="wL283nahEsRfDJyT6Ts5-615" value="change bg color" style="rounded=0;whiteSpace=wrap;html=1;sketch=1;hachureGap=4;jiggle=2;curveFitting=1;fontFamily=Architects Daughter;fontSource=https%3A%2F%2Ffonts.googleapis.com%2Fcss%3Ffamily%3DArchitects%2BDaughter;fillColor=#dae8fc;gradientColor=#7ea6e0;strokeColor=#6c8ebf;" vertex="1" parent="1">
          <mxGeometry x="232.5" y="3650" width="110" height="20" as="geometry" />
        </mxCell>
        <mxCell id="wL283nahEsRfDJyT6Ts5-624" value="github repo&amp;nbsp;" style="shape=cylinder3;whiteSpace=wrap;html=1;boundedLbl=1;backgroundOutline=1;size=15;sketch=1;hachureGap=4;jiggle=2;curveFitting=1;fontFamily=Architects Daughter;fontSource=https%3A%2F%2Ffonts.googleapis.com%2Fcss%3Ffamily%3DArchitects%2BDaughter;fillColor=#fad7ac;strokeColor=#b46504;" vertex="1" parent="1">
          <mxGeometry x="410" y="3800" width="185" height="260" as="geometry" />
        </mxCell>
        <mxCell id="wL283nahEsRfDJyT6Ts5-626" style="edgeStyle=orthogonalEdgeStyle;rounded=0;sketch=1;hachureGap=4;jiggle=2;curveFitting=1;orthogonalLoop=1;jettySize=auto;html=1;fontFamily=Architects Daughter;fontSource=https%3A%2F%2Ffonts.googleapis.com%2Fcss%3Ffamily%3DArchitects%2BDaughter;" edge="1" parent="1" source="wL283nahEsRfDJyT6Ts5-625" target="wL283nahEsRfDJyT6Ts5-624">
          <mxGeometry relative="1" as="geometry" />
        </mxCell>
        <mxCell id="wL283nahEsRfDJyT6Ts5-627" value="git push&lt;br&gt;in the first time&amp;nbsp;&lt;br&gt;git push -u origin &amp;lt;branch name&amp;gt;" style="edgeLabel;html=1;align=center;verticalAlign=middle;resizable=0;points=[];sketch=1;hachureGap=4;jiggle=2;curveFitting=1;fontFamily=Architects Daughter;fontSource=https%3A%2F%2Ffonts.googleapis.com%2Fcss%3Ffamily%3DArchitects%2BDaughter;" vertex="1" connectable="0" parent="wL283nahEsRfDJyT6Ts5-626">
          <mxGeometry x="-0.2335" relative="1" as="geometry">
            <mxPoint x="11" as="offset" />
          </mxGeometry>
        </mxCell>
        <mxCell id="wL283nahEsRfDJyT6Ts5-625" value="local repo" style="shape=cylinder3;whiteSpace=wrap;html=1;boundedLbl=1;backgroundOutline=1;size=15;sketch=1;hachureGap=4;jiggle=2;curveFitting=1;fontFamily=Architects Daughter;fontSource=https%3A%2F%2Ffonts.googleapis.com%2Fcss%3Ffamily%3DArchitects%2BDaughter;" vertex="1" parent="1">
          <mxGeometry x="45" y="3890" width="60" height="80" as="geometry" />
        </mxCell>
        <mxCell id="wL283nahEsRfDJyT6Ts5-628" style="edgeStyle=orthogonalEdgeStyle;rounded=0;sketch=1;hachureGap=4;jiggle=2;curveFitting=1;orthogonalLoop=1;jettySize=auto;html=1;entryX=0.5;entryY=1;entryDx=0;entryDy=0;entryPerimeter=0;fontFamily=Architects Daughter;fontSource=https%3A%2F%2Ffonts.googleapis.com%2Fcss%3Ffamily%3DArchitects%2BDaughter;" edge="1" parent="1" source="wL283nahEsRfDJyT6Ts5-624" target="wL283nahEsRfDJyT6Ts5-625">
          <mxGeometry relative="1" as="geometry">
            <Array as="points">
              <mxPoint x="460" y="4080" />
              <mxPoint x="75" y="4080" />
            </Array>
          </mxGeometry>
        </mxCell>
        <mxCell id="wL283nahEsRfDJyT6Ts5-629" value="git pull = git fetch + git merge" style="edgeLabel;html=1;align=center;verticalAlign=middle;resizable=0;points=[];sketch=1;hachureGap=4;jiggle=2;curveFitting=1;fontFamily=Architects Daughter;fontSource=https%3A%2F%2Ffonts.googleapis.com%2Fcss%3Ffamily%3DArchitects%2BDaughter;" vertex="1" connectable="0" parent="wL283nahEsRfDJyT6Ts5-628">
          <mxGeometry x="0.0901" y="-4" relative="1" as="geometry">
            <mxPoint x="1" as="offset" />
          </mxGeometry>
        </mxCell>
        <mxCell id="wL283nahEsRfDJyT6Ts5-630" value="local repo" style="shape=cylinder3;whiteSpace=wrap;html=1;boundedLbl=1;backgroundOutline=1;size=15;sketch=1;hachureGap=4;jiggle=2;curveFitting=1;fontFamily=Architects Daughter;fontSource=https%3A%2F%2Ffonts.googleapis.com%2Fcss%3Ffamily%3DArchitects%2BDaughter;" vertex="1" parent="1">
          <mxGeometry x="45" y="4140" width="60" height="80" as="geometry" />
        </mxCell>
        <mxCell id="wL283nahEsRfDJyT6Ts5-631" style="edgeStyle=orthogonalEdgeStyle;rounded=0;sketch=1;hachureGap=4;jiggle=2;curveFitting=1;orthogonalLoop=1;jettySize=auto;html=1;entryX=0.993;entryY=0.411;entryDx=0;entryDy=0;entryPerimeter=0;fontFamily=Architects Daughter;fontSource=https%3A%2F%2Ffonts.googleapis.com%2Fcss%3Ffamily%3DArchitects%2BDaughter;" edge="1" parent="1" source="wL283nahEsRfDJyT6Ts5-624" target="wL283nahEsRfDJyT6Ts5-630">
          <mxGeometry relative="1" as="geometry">
            <Array as="points">
              <mxPoint x="502" y="4170" />
              <mxPoint x="258" y="4170" />
              <mxPoint x="258" y="4173" />
            </Array>
          </mxGeometry>
        </mxCell>
        <mxCell id="wL283nahEsRfDJyT6Ts5-632" value="git clone &amp;lt;url repo&amp;gt;" style="edgeLabel;html=1;align=center;verticalAlign=middle;resizable=0;points=[];sketch=1;hachureGap=4;jiggle=2;curveFitting=1;fontFamily=Architects Daughter;fontSource=https%3A%2F%2Ffonts.googleapis.com%2Fcss%3Ffamily%3DArchitects%2BDaughter;" vertex="1" connectable="0" parent="wL283nahEsRfDJyT6Ts5-631">
          <mxGeometry x="0.3855" y="-1" relative="1" as="geometry">
            <mxPoint as="offset" />
          </mxGeometry>
        </mxCell>
      </root>
    </mxGraphModel>
  </diagram>
</mxfile>
